<?xml version="1.0" encoding="UTF-8" standalone="no"?>
<svg id="svg4319" xmlns:rdf="http://www.w3.org/1999/02/22-rdf-syntax-ns#" xmlns="http://www.w3.org/2000/svg" height="255.99mm" width="239.08mm" version="1.1" xmlns:cc="http://creativecommons.org/ns#" xmlns:dc="http://purl.org/dc/elements/1.1/" viewBox="0 0 847.12121 907.03487">
<g id="layer1" transform="translate(1666.4 435.44)">
<g id="g4379" stroke-linejoin="round" stroke="#00080e" stroke-linecap="round" stroke-width="8" fill="none">
<path id="path39624-0" d="m-1416.8-142.13 172.1 119.34s29.761 21.239 35.754 38.672"/>
<path id="path39626-9" d="m-1210.6 466.64c-20.174 4.4588-73.917-9.1366-84.286-14.741l-298.61-200.6c-63.839-47.094-77.714-106.16-64.47-175.77l45.292-202.59c24.754-117.76 37.206-133.43 76.891-157.43"/>
<path id="path39628-1" d="m-1269.1 13.44 33.632 25.046c22.186 16.73 27.008 37.712 22.404 62.441l-18.334 83.818"/>
<path id="path39630-0" d="m-1244.1 50.046c26.435 19.658 32.18 44.313 26.696 73.37l-21.843 98.488"/>
<path id="path39632-8" style="color:#000000" d="m-1475.8-203.11 238.18 165.18c16.586 12.962 105.62 28.865 137.84 5.8537"/>
<path id="path39634-2" d="m-935.41-107.7-179.79 100.45c-16.539 10.916-34.675 25.667-44.241 47.824"/>
<path id="path39636-2" d="m-1070.4-48.89 200.92-109.05c14.445-7.8403 28.108-40.977 13.954-48.977l-294.37-205.49c-27.64-21.022-85.911-25.784-118.63-8.3917l-252.6 126.65"/>
<path id="path39638-6" d="m-836.63-190.45c11.667 9.8918 16.209 58.43 11.286 73.787l-79.893 350.64c-4.9604 21.671-38.049 73.61-63.24 88.962l-224.8 136.99"/>
<path id="path39640-8" d="m-915.41-117.32 46.926-25.803c17.964-8.3948 33.071 2.6714 24.181 37.674l-21.843 98.488"/>
<path id="path39642-9" d="m-950.45-84.241 91.635-48.189c10.911-5.2607 20.087 1.6733 14.687 23.607l-13.269 61.715"/>
<path id="path39644-7" d="m-897.96-92.604 42.593-22.953c7.0287-3.5354 12.939 1.1239 9.4598 15.863l-8.5491 41.472"/>
<path id="path39646-7" d="m-874.17-85.531 20.605-11.784c3.8191-2.1091 7.0302 0.66971 5.139 9.4614l-4.6472 24.737"/>
<path id="path39648-8" d="m-860.59-73.707 5.3783-3.5204c2.0589-1.1454 3.7899 0.36366 2.7704 5.138l-2.5053 13.434"/>
<path id="path39650-9" d="m-1341.3-369.67 79.983-40.825c23.858-12.178 68.368-13.094 104.39 7.6016l215.09 151.88"/>
<path id="path39652-3" d="m-1299.7-372.01 68.733-35.067c12.004-6.1244 46.018-10.031 64.249 0.14459l108.85 74.68"/>
<path id="path39654-0" d="m-1248.3-379.08 45.807-22.711c8.4214-4.1753 32.666-5.5913 45.445 1.3621l76.3 51.03"/>
<path id="path39656-5" d="m-1204.4-381.66 27.131-13.913c4.0312-2.0673 19.697-2.5532 25.96 0.54795l37.394 22.758"/>
<path id="path39658-6" d="m-1165.5-382.83 11.404-5.5832c3.4016-1.6654 9.7479-1.7905 14.885 1.0403"/>
<path id="path39660-3" d="m-1035.2 348.2-149.83 90.235c-20.997 9.4598-51.87-24.727-46.566-47.524l52.425-231.89"/>
<path id="path39662-9" d="m-1083.2 358.8-112.9 67.636c-15.821 7.0907-39.084-18.535-35.087-35.622l15.706-70.009"/>
<path id="path39664-7" d="m-1132.3 368.7-75.276 44.617c-10.549 4.6774-26.061-12.227-23.396-23.5l10.472-46.183"/>
<path id="path39666-7" d="m-1186.7 382.9-34.384 19.596c-4.8185 2.0542-11.904-5.3711-10.687-10.322l4.7827-20.285"/>
<path id="path39668-4" d="m-1213.9 380.96-12.24 6.0465c-1.7154 0.63384-4.2384-1.6583-3.8054-3.1863l1.7019-6.2604"/>
<path id="path39670-3" d="m-1220.1 368.37-4.4823 1.2993c-0.6282 0.13613-1.5526-0.35747-1.3942-0.68621l0.6224-1.3469"/>
<path id="path39672-5" d="m-1617-32.591 21.57-97.51c17.569-75.752 87.564-84.019 130.53-45.743"/>
<path id="path39674-8" d="m-1431.6-323.62-51.716 25.683c-19.012 12.172-22.709 62.328-8.1507 77.82"/>
<path id="path39676-3" d="m-1528.8-183.72c10.462-2.0346 31.636-1.0293 59.413 21.361l221.26 154.84c29.851 22.012 44.138 62.847 37.945 95.383l-24.664 110.28"/>
<path id="path39678-3" d="m-1257.1 373.54 50.686-225.36"/>
<path id="path39680-3" d="m-1020.6-45.694-81.009 45.259c-16.539 10.916-53.384 37.546-62.137 97.947"/>
<path id="path39682-6" d="m-978.48 312.83c19.48-8.8197 56.889-62.957 61.698-83.5"/>
<path id="path39684-1" d="m-1291.9-21.232 47.469 34.464c31.314 23.021 38.12 51.892 31.623 85.919l-25.873 115.33"/>
<path id="path39686-0" d="m-1232.2 85.32c11.136 10.469 13.554 23.603 11.24 39.082l-9.2141 52.468"/>
<path id="path39688-4" d="m-1232.2 113.07c6.8207 7.8776 8.3003 17.761 6.8805 29.411l-5.652 39.488"/>
<path id="path39690-7" d="m-1174.6 73.662-72.045 314.44c-4.9591 23.911-51.193 44.369-66.407 33.912l-29.444-20.237"/>
<path id="path39692-4" d="m-1373 381.96-219.56-147.01c-60.422-45.838-61.083-115.55-50.632-156.58l11.006-48.255"/>
<path id="path39694-2" d="m-1495.3 283.07-110.42-75.142c-43.566-32.289-46.916-91.371-38.29-125.31"/>
<path id="path39696-7" d="m-1521.2 248.25-91.237-62.25c-35.995-26.749-38.763-75.695-31.636-103.81"/>
<path id="path39698-1" d="m-1570.4 197.79-56.205-38.714c-22.174-16.636-23.879-47.075-19.488-64.563"/>
<path id="path39700-5" d="m-1596 164.62-37.699-26.28c-14.873-11.293-16.016-31.957-13.071-43.828"/>
<path id="path39702-7" d="m-1623.9 128.9-16.583-12.093c-6.5424-5.1966-7.0449-14.706-5.749-20.169"/>
<path id="path39704-2" d="m-1635.3 103.39-7.0927-5.7171c-2.7982-2.4567-3.0128-6.9529-2.4582-9.5361"/>
<path id="path39706-2" d="m-1635.7 87.513-4.6343-4.0654c-1.8284-1.747-1.9683-4.9445-1.6058-6.7816"/>
<path id="path39708-7" d="m-1192.5 25.945c6.5787-23.534-38.927-44.071 15.733-33.8 12.617 2.3709 45.277-0.3332 20.658 14.076"/>
<path id="path39710-0" d="m-1586.3-181.77c10.329-46.314 26.854-67.854 41.026-79.483"/>
<path id="path39712-3" d="m-1562-214.8c12.035-31.355 38.494-49.254 44.479-45.032 8.2882 5.8465 0.088 18.199 11.072 41.105"/>
<path id="path39714-6" d="m-1143.4-376.43 7.4311-2.2582c2.2167-0.67361 6.3528-0.72271 9.7015 0.42486"/>
<path id="path39716-0" style="color:#000000" d="m-1255.2-50.632c33.613 23.45 85.17 39.726 145.71 7.2275l101.25-54.348"/>
<path id="path39718-9" d="m-1562-214.8c9.2936-24 29.726-37.7 34.348-34.468 6.4007 4.4751-0.026 11.904 8.4557 29.437"/>
<path id="path39720-8" d="m-1562-214.8c6.4611-16.399 20.667-25.76 23.88-23.552 4.4501 3.0579-0.5709 6.3209 5.3264 18.301"/>
<path id="path39722-9" d="m-1565.4-207.15c3.3557-9.3377 14.137-20.311 15.806-19.225 2.3108 1.5036-1.1286 2.02 1.9339 7.9107"/>
<path id="path39724-6" d="m-1191.5 25.345c5.2692-10.588-19.382-28.576 17.379-21.914"/>
<path id="path39726-4" d="m-1194.2 42.987c7.6867-24.643-7.3032-34.099 13.737-27.664"/>
<g>
<path id="path39728-0" style="color:#000000" d="m-1245.4 413.88s-18.046 18.611-36.076 20.396c-9.5935 9.2779 34.592 17.659 51.062 17.477"/>
<path id="path39730-2" style="color:#000000" d="m-1264.2 431.86c-4.2769 3.1331 15.426 5.9689 22.771 5.9093"/>
<path id="path39732-9" style="color:#000000" d="m-1255 424.96c-2.2142 0.41498 7.9932 0.79937 11.798 0.79424"/>
<path id="path39734-0" style="color:#000000" d="m-848.77-158.16c5.4285-5.3805 5.9509-9.0276 6.1279-14.544 1.7941 4.1055 5.0227 12.316 4.294 22.015"/>
<path id="path39736-3" style="color:#000000" d="m-1247.1-44.699c22.714 15.234 57.553 25.808 98.464 4.6988l68.415-35.302"/>
<path id="path39738-2" style="color:#000000" d="m-1236.5-39.57c11.243 6.587 28.487 11.16 48.733 2.0373l33.859-15.257"/>
<path id="path39740-2" style="color:#000000" d="m-1242.4-42.903c5.4301 2.2053 13.758 3.7378 23.533 0.68864l16.348-5.0992"/>
<path id="path39742-4" style="color:#000000" d="m-1256.5-50.518c2.0847 1.5989 7.1139 2.5112 12.294 1.3843l9.2602-2.0147"/>
</g>
</g>
</g>
</svg>