<?xml version="1.0" encoding="UTF-8"?>
<!-- Created with Inkscape (http://www.inkscape.org/) -->
<svg width="353" height="826" version="1.1" viewBox="0 0 400 826" xmlns="http://www.w3.org/2000/svg">
<g transform="translate(-1.0223 1.0223) rotate(200 200 412)">
<path d="m0 413v-413h353v826h-353z" fill="#fefefe"/><path d="m165.5 818.61-4-1.2577-8-5.1768-5-4.9312-3.9571-4.7427-6.2011-9-9.2546-19-6.2723-14.757 2.6056-24.243-.0532-28-3.5036-21.582-2.7188-6.5069-3.4982-14.511-3.4982-14.511-1.2159-8.4449-1.2159-8.4449-.006-36 2.3092-16 5.056-22 1.9813-8 1.9813-8 5.1488-19 .49697-4.1255.49696-4.1256-11.512-16.749-15.51-20.188-10.809-15.874-6.3512-12.498.10902-7.4402 2.8053-17 4.0564-28.498 1.97-8.5023 3.2686-27 .96952-1.5983 4.9609-46.402 1.6696-25-.88837-11-.88836-11-.0326-35.355 1.08-7.8224 1.08-7.8224 3.8087-14 3.0566-40.732.40728-.659.40729-.65901 3.1342-23.95 6.0417-26 4.8952-17 4.9103-14 4.9498-12 4.1585-9.1296 9.2441-16.87 5.3127-8 9.8162-13 5.1973-4.4597 7.5-2.1174 7.7205 2.0789 9.3812 8.2577 7.3983 11.288 2.4649 3.9525 8.215 17 3.6482 8 3.9765 9 7.1954 18.457v2.6431l1.7977 1.9 4.4446 15 1.9157 7.5 1.9157 7.5 2.9 10 3.0046 19 1.9934 10 2.9142 41 3.0149 10 1.0495 8.4738 1.0495 8.4738-.0486 17.526-.0485 17.526-1.5618 19.359 1.5729 35.641 2.4915 22 2.4915 22 2.054 14 2.054 14 1.4855 7 1.4855 7 3.0421 20 1.4542 7 1.4542 7 .0372 8-5.9924 9-2.4713 3.8359-20.194 27.164-9.9863 15-5.556 10.35.50563 3.3249.50564 3.3249 2.4986 12.161 2.4986 12.161 1.1388 1.8426 3.6184 18.918 3.6184 18.918 1.9234 8 .57953 21.5.57952 21.5-3.1238 17-6.1999 23-4.6696 12-5.3047 13.511 3.5678 23.489-.0262 27-3.351 15.362-8.0225 16.638-6.6003 10.658-16.562 20.69-10.036 2.1524-13.402-.1338-4-1.2577z" fill="#c5c2ca"/><path d="m165.79 818.52-4.7115-1.2972-9.6323-7.0708-8.0413-9.6561-4.0814-6-3.1526-6-3.1526-6-6.0169-13.55v-1.0596l-4.0547-8.9007 1.1575-7.7448 1.1575-7.7448.88982-35-5.0087-25.144-4.2767-12.695 1.1191-28.081 1.1191-28.081-1.1014-27.5-1.1014-27.5 3.1421-11 5.14-19 1.3078-6.3599 1.3078-6.3599-11.072-16.28-17.225-22.698-7.8891-11.302-8.8586-16.914 2.2999-15.086 3.9897-29 1.1033-3 4.9557-35 4.9385-39 2.0228-26 .78816-8 .78815-8-1.5952-14-1.2819-34 3.2849-21 2.9513-15 2.9039-32 1.5299-13.5 1.5299-13.5 3.0698-14 3.7829-17 3.1433-12 3.4623-10 3.4623-10 3.229-8.8504 11.709-24.157 12.432-18.934 8.1141-9.6228 6.3695-3.9366h8.8724l9.0254 5.7237 10.351 13.776 15.016 30.345v1.177l1.9418 4.2391 1.9418 4.2391 6.8109 18 4.1327 12 5.1376 17 2.1625 11 1.8946 5 4.0716 27 .9399 7.5.93991 7.5.91901 14 .91902 14 3.1846 19 1.002 5.5602 1.002 5.5602v20.932l-.96111 7.9738-.9611 7.9738-.34958 14 2.2734 43 1.0451 5 4.915 40 4.8978 30 5.1027 30 1.9901 8 .0238 3.0352.0239 3.0352-12.5 18.686-3 4.3119-13 16.926-10 15.008-5.8094 10.837 1.1389 7.5805 1.1389 7.5805 5.1023 22 3.6475 17-1.7859 22 .21775 32.5.21774 32.5.0528 17-4.1687 9-1.2563 4-1.2563 4-1.4747 2-1.7218 5.2773-1.7218 5.2773 3.1789 23.122v26.647l-2.9078 14.676-4.6855 11-4.6512 9-11.126 15.965-10.985 13.446-9.7433 2.0896-12.402-.1788-4.7115-1.2972zm-27.261-520.02 1.7909-11 .72064-1 .72065-1 1.6834-12.5 1.6834-12.5 1.7129-4 1.0274-11 1.0274-11-1.1307-16.332-1.1307-16.332 2.3482-31.335 6.1246-25 1.8944-1.9v-3.353l11.627-22.747 6.7577-10 6.8564-8.5h1.5596l1.2319 5.25 1.2319 5.25.8859 1.718.88589 1.718 3.8324 17.564 1.0523 4.1679 1.0523 4.1679 1.5136 9.3321 1.5136 9.3321.96534 5.5.96535 5.5 3.0582 30.674.40077.66315.40076.66315 3.3777 38 1.6445 4 3.2899 24.692 1.7235 3.3081 3.9976 16 4.5676 13.5h1.5248l.29181-19.25.29182-19.25-1.4678-66.868-2.0322-2.0322v-8.5817l-1.535-15.259-1.5349-15.259-.88725-2-.88724-2-3.402-24-.78195-1-.78194-1-1.7427-9-1.7427-9-1.4311-2-3.5464-15-1.4141-2-3.5278-13-.76216-1-.76215-1-2.5504-8-4.6372-6-2.573-3.0819-8-9.7606-.7683-1.0787-.76829-1.0787-2.0075 3.4013-1.2279 1.2994-1.2279 1.2994-2.2194 4-2.2194 4-2.2806 4.5-2.2806 4.5-1.1834 1-3.7139 10-.65388.5-.65389.5-1.7798 5.5-1.7798 5.5-1.597 2.0382-3.4303 13.962-.74504 1-.74505 1-1.6791 8-1.6791 8-1.7787 4-1.5531 11-1.5531 11-1.8926 6-3.093 37-1.9281 10-1.086 20-1.086 20-1.9763 45-1.0906 12.5h1.982l1.1254 3.2284 1.1254 3.2284 4.4387 6.4779 1.1214-1.2173 1.1214-1.2173z" fill="#c7c1b9"/><path d="m166.5 818.6-4-1.265-6.3282-3.2987-9.7719-9.5375-8.686-12.812-9.4856-20.188-2.5786-6.5-2.5786-6.5 2.8654-20 .0476-32-2.4906-11.97-2.4906-11.97-2.0625-5.9597-2.0625-5.9597 2.1219-39.749v-29.483l-1.0563-20.608-1.0563-20.608 3.2519-11.692 4.9859-18 1.4252-6.9484 1.4252-6.9484-10.411-15.103-25.204-33.515-9.6824-18.995 3.3632-20.49 4.0893-27 4.8561-32 3.9792-33 1.0002-7 1.0002-7 1.0191-16.05 1.0191-16.05 3.2295-11.901 1.8426-8 1.1792-39-1.1598-15.127-1.1598-15.127 1.4997-13.873 1.4996-13.873 1.5811-15.425 1.5811-15.425.99502-1.61 1.519-8.7701 1.519-8.77 3.0512-11.5 3.0513-11.5 5.5706-17 4.2867-11 3.0835-7 7.5828-15 2.5139-4.6007 2.5139-4.6007 9.5722-13.799 6.7958-8.3927 6.9613-4.1073h8.21l8.1757 4.7923 7 8.6435 6.4339 9.894 11.845 24.17 6.0784 15 5.0819 13.004 2.0581 5.9982 2.0581 5.9982 5.1536 17 5.6594 24.303 2.6251 17.962 2.6251 17.962.15083 14.886.15082 14.886-.79309 25.5-.79308 25.5 3.0217 19 3.1815 11 2.0393 40.731 5.9045 46.269 5.0531 32 .5463 1.7365.5463 1.7365 1.9081 11.764 1.9081 11.764 1.1695 6.5 1.1695 6.5-7.3078 12-9.4736 13.254-12 15.745-10.162 15-5.6243 10.441.57703 5.5909.57704 5.5909 3.1604 13.377 3.0898 13 3.0898 13-1.2675 29-1.2675 29 1.1494 23.055 1.1494 23.055-1.8344 5.889-3.1408 8-3.1408 8-4.0981 11.673 3.4792 24.899-.91834 31.427-5.8188 16.919-5.1573 9.0405-5.1573 9.0405-16.685 21.478-9.863 3.0219-13.137-.1338-4-1.265zm-27.972-520.1 1.7909-11 .72064-1 .72065-1 1.6834-12.5 1.6834-12.5 1.7129-4 1.0274-11 1.0274-11-1.1307-16.332-1.1307-16.332 2.3482-31.335 6.1246-25 1.8944-1.9v-3.353l11.627-22.747 6.7577-10 6.8564-8.5h1.5596l1.2319 5.25 1.2319 5.25.8859 1.718.88589 1.718 3.8324 17.564 1.0523 4.1679 1.0523 4.1679 1.5136 9.3321 1.5136 9.3321.96534 5.5.96535 5.5 3.0582 30.674.40077.66315.40076.66315 3.3777 38 1.6445 4 3.2899 24.692 1.7235 3.3081 3.9976 16 4.5676 13.5h1.5248l.29181-19.25.29182-19.25-1.4678-66.868-2.0322-2.0322v-8.5817l-1.535-15.259-1.5349-15.259-.88725-2-.88724-2-3.402-24-.78195-1-.78194-1-1.7427-9-1.7427-9-1.4311-2-3.5464-15-1.4141-2-3.5278-13-.76216-1-.76215-1-2.5504-8-4.6372-6-2.573-3.0819-8-9.7606-.7683-1.0787-.76829-1.0787-2.0075 3.4013-1.2279 1.2994-1.2279 1.2994-2.2194 4-2.2194 4-2.2806 4.5-2.2806 4.5-1.1834 1-3.7139 10-.65388.5-.65389.5-1.7798 5.5-1.7798 5.5-1.597 2.0382-3.4303 13.962-.74504 1-.74505 1-1.6791 8-1.6791 8-1.7787 4-1.5531 11-1.5531 11-1.8926 6-3.093 37-1.9281 10-1.086 20-1.086 20-1.9763 45-1.0906 12.5h1.982l1.1254 3.2284 1.1254 3.2284 4.4387 6.4779 1.1214-1.2173 1.1214-1.2173z" fill="#bbb8c3"/><path d="m166.5 818.67-4-1.3296-6-3.1397-10.09-9.6964-8.696-12.812-9.4856-20.188-2.5802-6.5-2.5801-6.5 1.4481-9.5 1.4481-9.5.0179-16.734.018-16.734-5.0205-23.778-4.0703-11.754 2.0907-39.61v-30.781l-1.0664-19.977-1.0664-19.977 3.1426-11.327 3.1426-11.327 1.9486-6 1.4334-7.4175 1.4334-7.4175-13.106-19.165-10.952-14-12.227-16.992-8.836-17.008 3.1803-20 2.9151-20 3.0982-21 3.9577-25 2.918-25 1.944-15 .64049-11 .64048-11 1.947-16 2.8442-9 1.0339-8.4738 1.0339-8.4738-.0158-16.526-.0158-16.526-.97718-11.794-.97719-11.794 6.0146-59.413 1.8151-6 1.1414-7 1.1414-7 6.0874-23 4.9277-15 2.519-6.5 2.519-6.5 4.8202-10.376v-.86666l10.294-18.757 9.9818-14.949 7.2245-8.7239 7.4203-3.8275h7.0188l7.5608 4.1597 6.5495 7.3403 7.2536 11 10.811 22 1.6784 3.1406 6.0642 14.859 5.0658 13 5.0105 15 5.0846 17.591 4.8024 20.409 5.3217 36.978.13905 14.511.13904 14.511-.79309 25.5-.79308 25.5 3.0217 19 3.1312 10.884 1.0337 20.558 1.0338 20.558 2.0262 16 2.9462 25 2.8427 16 1.0807 7.5 1.0807 7.5 1.8919 10.5 1.8919 10.5 4.5114 24.576-4.6559 8.4241-17.17 23.664-13.387 18.288-9.1126 15.319.0348 7.7287 3.0395 14 3.9315 18 3.1377 11-2.4657 59 1.1521 23.156 1.1521 23.156-6.9068 18.689-5.2809 14 1.3529 10 1.3529 10-.0518 37-6.4237 17.854-9.5246 16.802-17 21.33-5.8362 2.7846-17.164.72516-4-1.3296zm-28.462-515.17 2.1115-10 4.8085-25 1.5076-11 1.5076-11 1.8962-15-2.0738-23 1.1901-29 2.8129-18 5.4563-19 8.8018-18.913 6.3597-10.087 10.021-13.601 2.8035 7.6012 4.8844 19 2.7531 13 1.6436 8.5 1.6436 8.5 1.9201 15 1.9201 15 2.965 27 .98294 4.1614 1.5826 14.419 1.5826 14.419 5.0823 26 4.8214 16.8 2.739 7.0277 2.739 7.0277.77469-18.428.77468-18.428-1.029-35.461-1.029-35.461-1.002-5.5391-1.002-5.5391-3.8533-34-4.2209-25-.92745-2-.92744-2-3.2978-17-.7436-1-.74359-1-3.5464-15-1.5117-2-3.5278-13-.71332-1-.71331-1-1.2842-4-1.2842-4-6.4762-8.5047-10.524-11.909-9.3138 14.414-10.209 21-5.087 13-4.1468 13-5.949 23-2.0483 11.935-2.0484 11.935-.40511.65549-.40512.65549-1.5785 19.91-1.5785 19.91-.86858 2.0939-.86859 2.0939-1.6076 36.406-1.6076 36.406-.99465 9.5-.99464 9.5.01 5.2785.01 5.2785 6.2801 12.441 3.1288 4.7752.25855-.88655.25856-.88655 2.1116-10z" fill="#a9a6b6"/><path d="m166.5 818.61-4-1.2577-8-5.0875-10.128-10.763-6.9925-11-6.201-13-3.932-9-4.0317-9.2684 1.0479-4.8658 1.0479-4.8658.1892-49-4.5994-19-1.9388-5.7206-1.9388-5.7206.97433-16.779.97434-16.779.008-42-1.0107-16.682-1.0107-16.682 1.9183-7.6368 5.3302-19 3.8792-17.795-3.7003-5.6023-3.6994-5.6023-23.194-31-7.6054-11.509-7.0402-14.245 1.342-5.2458 4.7288-33 5.0389-33 3.9779-31 1.9713-12 1.0936-15 1.0936-15 .97544-9.3568.97545-9.3568 1.9208-3.5891 3.2117-19.697-.0686-38-1.071-11.898-1.071-11.898.95255-5.6016.95255-5.6016 1.2329-17 .95304-10 .95303-10 4.2109-23 2.9447-12.5 2.9447-12.5 10.092-30 13.913-28.566 13.75-20.434 8.3495-8.484 7.7853-2.3325 8.2523 2.4725 9.816 9.1817 8.8388 14.181 11.93 24.981 4.3568 11 2.9373 7.5 2.9373 7.5 6.7927 21 3.1922 10.539 3.9378 19.138.49559.80187.49558.80188 4.0502 30.72 2.172 24-2.1325 27-1.2489 19 2.22 27 2.7852 12 2.0505 8 2.2253 41 1.8701 17 4.9156 35 5.0352 30 5.1533 29 .57958 3.1747.57959 3.1747-15.174 22.651-10.101 13-12.639 18-6.3227 11.243.0397 3.8783.0397 3.8783 2.7418 14 5.1302 22 1.1573 4.9939 1.1573 4.9939-2.2785 40.012.0646 31 .94405 15.338.94404 15.338-5.9408 17.324-1.9592 4-5.1657 14.59 1.0145 3.2051 1.0145 3.2051 2.0964 15.645v24.488l-2.137 11.867-4.2098 12-11.153 19.768-17 21.232-9 2.339-13 .0272-4-1.2577zm-29.242-508.36 1.5864-5.75 2.2313-13 1.9132-9 1.9132-9 4.0492-26 1.3516-14.955 3.7919-11.522 3.7919-11.522 5.8997-15 1.7583-4.25 1.7583-4.25h1.4013l33.764 28.531 1.6456 12.984 1.6456 12.984 3.3919 22 4.9775 20 5.0905 15 3.4585 6.7624.65691-12.881.65692-12.881.00039-15 .00038-15-1.0409-26.378-1.0409-26.378-.91149-8.6223-.91148-8.6223-4.1116-33-1.8056-6-2.4321-14-6.5781-26-4.2076-15-1.81-4-3.3785-10.726-2.752-5.2743-.01232-2.0529-10.5-13.095-6.5767-7.8519-1.9618 2.5-1.9618 2.5-10.642 19-4.214 9-5.2606 13-5.7195 18-2.1519 8-2.1519 8-5.8143 29.526-2.9394 33.474-2.1424 14-2.9809 54-1.1408 23.282-1.1408 23.282 8.7478 16.935h1.2232z" fill="#969098"/><path d="m167.5 818.66-4-1.3336-8.0137-4.122-10.326-10.919-6.8359-10.789-6.2145-12-8.3367-19.775.6916-6.1126.6916-6.1126 1.6353-26.291-.86106-11.537-.86106-11.537-5.1452-20.635-2.7399-7.0805 1.5184-27.536 1.5184-27.536-1.5105-27.164-1.5105-27.164 6.8021-24.518 1.999-9.3601 1.999-9.3601v-1.5272l-11.401-16.753-18.744-24.654-10.52-16.346-3.6628-9.6443 1.2167-9.6779 1.2167-9.6778 4.9583-32 3.8826-25 5.0957-40 .47776-4.5.47777-4.5 2.0691-30 3.067-12 2.7669-15.472 1.3669-24.603-2.2905-32.925-.1944-10 2.0779-22.299 2.0779-22.299 2.8868-14.401 1.292-9 6.8091-28.002 7.2632-21.998 7.2738-17 9.7426-18.916 11.171-16.788 8.6778-9.6518 8.6454-3.3017 8.3252 2.2417 7.099 6.233 8.6874 12.183 13.327 27 1.6439 3.1263 3.2193 7.9369 3.2193 7.9369 9.7157 27.689 4.9674 18.311 4.9295 23 1.559 13 1.559 13 2.0828 22.481-1.6351 19.26-1.6351 19.26.59212 14.5.59211 14.5 1.5298 7.8617 1.5298 7.8617 1.4198 5.1383 1.4198 5.1383 1.1278 20.66 1.1278 20.66.9112 8.3403.9112 8.3403 4.0175 30 3.0614 17 1.9993 12 1.9993 12 4.8451 28-4.1295 7-5.2199 7.9718-20.14 27.028-7.0731 10.071-8.1747 14.929 1.8611 10.5 1.861 10.5 7.2984 31-1.2086 19-1.2086 19 .196 36 .95757 13.749.95758 13.749-6.6135 18.503-6.5298 16.869 2.1754 8.1336 2.3807 17.89-.49996 14.054-.49997 14.054-4.9438 15-6.5712 13-7.9556 12-13.799 17.315-6.4708 2.3365-15 .84557-4-1.3336zm26.446-258.27 7.8765-2.6032 6.1943-5.2936-.63499-3.7227-.635-3.7227-3.2472-1.0034-18.881-2.1138-11.05 2.294-6.8217 6.8217 1.2007 7.3988 4.5524 3.4586 4 .81721 9.5698.27236zm-9.9383-59.517 3.7401-1.1206-.78644-22.259-1.9223-20-.56074-13.5-.56073-13.5-.57025-3.25-.57024-3.25h-12.561l-1.0755 4.5-.61194 15-.61195 15-1.8822 16-.40711 12.637-.4071 12.637 6.2789 2.0217 8.768.20418zm-36.983-13.505-1.0587-5.8747-1.2332-5.5-1.2332-5.5-5.3444-9.4736-6.0065-15.575-3.149-21.208v-13.756l1.4844-12.994 1.4844-12.994 4.2446-20 9.7548-40 5.0795-23.881.89453-.89453 18.761-.98132 19.797 2.3087 11.5 2.3485.0201.54993.0201.54992 1.913 12 4.8875 24 4.1442 18.667 1.1203 1.8127 1.9205 9.7604 1.9205 9.7604 1.4732 7 1.4732 7 1.1382 12.75 1.1382 12.75-2.2566 25.5-2.072 7.5-2.072 7.5-7.9941 22-2.6583 7-.61269 2.2102-.6127 2.2102 9.6095-5.3271 11.103-11.093 7.0766-11 2.1398-3.7723 2.1398-3.7723 5.0412-18.947v-10.831l-4.732-18.678-1.1283-5-1.1283-5-.54826-5.5-.54827-5.5-1.7685-55-2.6051-10.334-2.6051-10.334-2.8306-4.3324-.90664-98-1.1275-14.5-1.1275-14.5-2.5404-18.5-2.5404-18.5-5.6737-28-4.3024-17-4.119-13-7.0147-21-2.0186-3.9883-2.0186-3.9883-14.102-16.562-2.1142.67392-6.6317 9.8641-11.156 22-8.7335 22.971-5.181 19.029-5.5999 26-3.4317 27-.25762 5-.25761 5-2.2883 20-3.031 47-.93342 22.5-.93341 22.5-3.116 25-1.9107 12-1.0978 24-1.0978 24-1.7196 14-3.1742 21-3.2648 10-.0324 20 5.3606 17.33 7.0857 12.536 7.0028 9.5396 10.317 9.2755 7.0826 3.4554.29193-.19334.29192-.19335-1.0587-5.8747z" fill="#8d7b82"/><path d="m167.5 818.66-4-1.3336-8.0137-4.122-10.326-10.919-6.8359-10.789-6.2145-12-8.3367-19.775.6916-6.1126.6916-6.1126 1.6353-26.291-.86106-11.537-.86106-11.537-5.1452-20.635-2.7399-7.0805 1.5184-27.536 1.5184-27.536-1.5105-27.164-1.5105-27.164 6.8021-24.518 1.999-9.3601 1.999-9.3601v-1.5272l-11.401-16.753-18.744-24.654-10.52-16.346-3.6628-9.6443 1.2167-9.6779 1.2167-9.6778 4.9583-32 3.8826-25 5.0957-40 .47776-4.5.47777-4.5 2.0691-30 3.067-12 2.7669-15.472 1.3669-24.603-2.2905-32.925-.1944-10 2.0779-22.299 2.0779-22.299 2.8868-14.401 1.292-9 6.8091-28.002 7.2632-21.998 7.2738-17 9.7426-18.916 11.171-16.788 8.6778-9.6518 8.6454-3.3017 8.3252 2.2417 7.099 6.233 8.6874 12.183 13.327 27 1.6439 3.1263 3.2193 7.9369 3.2193 7.9369 9.7157 27.689 4.9674 18.311 4.9295 23 1.559 13 1.559 13 2.0828 22.481-1.6351 19.26-1.6351 19.26.59212 14.5.59211 14.5 1.5298 7.8617 1.5298 7.8617 1.4198 5.1383 1.4198 5.1383 1.1278 20.66 1.1278 20.66.9112 8.3403.9112 8.3403 4.0175 30 3.0614 17 1.9993 12 1.9993 12 4.8451 28-4.1295 7-5.2199 7.9718-20.14 27.028-7.0731 10.071-8.1747 14.929 1.8611 10.5 1.861 10.5 7.2984 31-1.2086 19-1.2086 19 .196 36 .95757 13.749.95758 13.749-6.6135 18.503-6.5298 16.869 2.1754 8.1336 2.3807 17.89-.49996 14.054-.49997 14.054-4.9438 15-6.5712 13-7.9556 12-13.799 17.315-6.4708 2.3365-15 .84557-4-1.3336zm34.5-123.55 2.5-.68986.33849-2.9605.33848-2.9604.79395-1 .79396-1 3.3293-20 1.017-3.5 1.017-3.5 2.0704-19.5 2.0705-19.5.044-10.5.0441-10.5-5.3161-32-3.3938-19.101-3.3938-19.101-2.3249-6.7977-7.1326-5.4081-9.2806-1.3917-28.015 2.4273-6.2646 1.0509-2.5249 12.322-2.6135 8-4.2737 26-1.4447 12.5-1.4447 12.5-.006 57 1.5078 13.5 1.5078 13.5 2.9961 17 .5495 2.25.54949 2.25 53.462-.1994 2.5-.68987zm-14.923-194.79 1.0037-1.0037-1.1335-23.41-1.1335-23.41-1.1569-14.5-1.1569-14.5h-14l-3.253 42.989-.74698 33.905 5 1.5236 15.574-.59072zm-39.079-7.5728-.001-1.25-1.4985-8-1.4985-8-.63435-3-.63434-3-1.9651-2.4862-5.7761-12.214-5.1875-17.3-.52922-15.608-.52923-15.608 2.283-19.358 1.0192-4.2129 1.0192-4.2129 3.8992-19 4.8522-20 6.2111-26 1.0838-6.2231 1.0838-6.2231 7.1719-1.3454 27.132 1.3758 15.984 2.4304 1.5021 10.985 4.1995 21 4.9284 21 3.8707 16 5.2438 27 .94424 35-5.051 24.176-2.6465 6.9119-2.6465 6.9119-1.3838 3.5-1.3838 3.5-2.1365 6.8104-2.1365 6.8104 1.2002 1.2002 3.6697-3.3211h2.0017l12.524-11.334 7.5713-10.249 5.2205-10.302 5.0246-17.339v-14.413l-1.5374-5.1768-1.5373-5.1768-4.0667-18.509-.87274-24-.87275-24-1.1209-18-4.9673-18.551-3.0215-5.843.0548-71.606-2.0346-40-2.1404-26-.47142-1.6315-.47141-1.6315-2.4362-15.868-2.4362-15.868-3.8393-18-2.5756-10-2.5756-10-9.8338-30.092-1.992-4.123-1.992-4.123-14.645-17.2-2.1142.67392-6.6324 9.8641-11.607 23-8.3189 22.166-4.9091 17.834-5.9776 28-1.5344 12.05-1.5343 12.05-1.0071 12.899-.49419 2.5-.4942 2.5-2.024 29-2.024 29-.98289 24.5-.9829 24.5-2.4578 17-2.4579 17-1.0475 22.5-1.0475 22.5-1.1029 11-1.9771 14-1.9771 14-1.6736 5-1.6736 5 .004 22 2.3553 7.5 2.3552 7.5 2.9757 5.9464 2.9757 5.9464 7.5661 10.107 10.046 9.7664 7.6608 4.5451 1.5.1886-.001-1.25z" fill="#8a827c"/><path d="m166.07 818.04-5.4304-2.0192-7.2053-4.9933-7.1948-7.5287-8.295-12.325-10.585-22.675-1.737-4.6839-1.737-4.6839 1.1755-10.316 1.1755-10.316-.064-34-2.9469-15-5.5129-18 .11717-6.5.11716-6.5 1.1752-16.826 1.1752-16.826-.66208-19.674-.66209-19.674-1.743-24 5.9551-22 3.5284-14 1.3807-9.3114-12.676-18.689-14.451-18.513-10.891-16.085-6.438-13.078 4.3925-32.324 4.9273-31 5.1461-37 1.7786-13.009 1.6383-20.496 1.6384-20.496 1.8904-9 4.8907-25 .0294-17.308.0293-17.308-2.3362-19.01 1.2519-17.187 1.2519-17.187 1.4149-12 1.4149-12 3.0162-18 5.1558-22 10.717-33.165 10.435-22.835 10.889-18 9.9436-13.451 5.9092-4.9723 6.8394-1.8884 7.1483 1.6122 6.55 4.9959 8.1923 10.703 8.7404 16 9.3844 20.332 4.64 11.834 4.64 11.834 2.8998 8.835 2.8998 8.835 4.1784 15.33 5.8182 27 3.0571 28 .96494 9.0866.96493 9.0866-1.0083 10.913-1.0083 10.913-1.003 2.7664-.0694 18.117-.0694 18.117 1.6309 9.5 1.6309 9.5 3.7802 16 2.2916 41 1.4318 12 1.4318 12 4.8446 33 5.05 29 4.086 24 .00023 2.5228.00024 2.5228-7.0751 11.954-22.823 30.45-8.8292 13.55-5.162 10.215 2.9761 18.785 2.8875 11 5.2089 23.871-3.1835 43.198.0442 9.4658.0442 9.4659 1.3497 18.936 1.3497 18.936-1.7302 4.1284-11.3 30.763 1.8713 9.1183 1.8713 9.1183-.024 34-5.2409 17.102-5.4814 10.898-10.471 16-12.204 14.848-6.5786 2.8253-15 .88761-5.4304-2.0192zm35.93-122.93 2.5-.68986.33849-2.9605.33848-2.9604.79395-1 .79396-1 3.3293-20 1.017-3.5 1.017-3.5 2.0704-19.5 2.0705-19.5.044-10.5.0441-10.5-5.3161-32-3.3938-19.101-3.3938-19.101-2.3249-6.7977-7.1326-5.4081-9.2806-1.3917-28.015 2.4273-6.2646 1.0509-2.5249 12.322-2.6135 8-4.2737 26-1.4447 12.5-1.4447 12.5-.006 57 1.5078 13.5 1.5078 13.5 2.9961 17 .5495 2.25.54949 2.25 53.462-.1994 2.5-.68987zm-14.923-194.79 1.0037-1.0037-1.1335-23.41-1.1335-23.41-1.1569-14.5-1.1569-14.5h-14l-3.253 42.989-.74698 33.905 5 1.5236 15.574-.59072zm-39.079-7.5728-.001-1.25-1.4985-8-1.4985-8-.63435-3-.63434-3-1.9651-2.4862-5.7761-12.214-5.1875-17.3-.52922-15.608-.52923-15.608 2.283-19.358 1.0192-4.2129 1.0192-4.2129 3.8992-19 4.8522-20 6.2111-26 1.0838-6.2231 1.0838-6.2231 7.1719-1.3454 27.132 1.3758 15.984 2.4304 1.5021 10.985 4.1995 21 4.9284 21 3.8707 16 5.2438 27 .94424 35-5.051 24.176-2.6465 6.9119-2.6465 6.9119-1.3838 3.5-1.3838 3.5-2.1365 6.8104-2.1365 6.8104 1.2002 1.2002 3.6697-3.3211h2.0017l12.524-11.334 7.5713-10.249 5.2205-10.302 5.0246-17.339v-14.413l-1.5374-5.1768-1.5373-5.1768-4.0667-18.509-.87274-24-.87275-24-1.1209-18-4.9673-18.551-1.4968-2.8946-1.4968-2.8946.22092-71.66-2.3809-43-2.7273-27-2.0667-13.5-2.0667-13.5-3.0865-14-6.2367-26-5.9153-19-4.8752-14-2.1984-4.2221-2.1984-4.2221-14.646-17.084-1.5184.93841-5.9928 10.295-5.9932 10.295-5.2643 11-4.8782 12-5.0637 15-4.0218 14-2.5883 11.5-2.5883 11.5-4.0222 29-1.9607 21-2.0062 28-2.0062 28-1.9857 48-2.4412 17.5-2.4412 17.5-1.058 22.5-1.058 22.5-1.1029 11-1.9771 14-1.9771 14-1.6736 5-1.6736 5 .004 22 2.3553 7.5 2.3552 7.5 2.9757 5.9464 2.9757 5.9464 7.5661 10.107 10.046 9.7664 7.6608 4.5451 1.5.1886-.001-1.25z" fill="#847779"/><path d="m165.32 817.6-6.181-2.297-10.333-8.6514-8.1118-10.981-10.256-20.17-3.3544-8-1.5226-4.3235-1.5226-4.3235 2.2293-20.353-.002-33-1.1862-6.9701-1.1862-6.9701-3.2713-11.53-3.2713-11.53 1.5049-20 .66397-24 .66396-24-3.0021-38.915 3.0194-11.042 3.0194-11.042 4.7594-20 .0111-1.8787.01063-1.8787-8.3104-12.243-17.19-22.627-10.377-14.712-8.3169-15.661.67482-6.9251.67482-6.9251 1.4546-9.0749 1.4546-9.0749 5.0267-33 4.9038-35 1.8743-14 1.6284-20 1.6284-20 2.9573-14 4.1137-22-1.3617-46-.33568-19 1.2962-16.5 1.2962-16.5 2.4835-15.5 2.4835-15.5 2.5936-11 2.5936-11 5.8972-19.463 8.568-22.537 10.535-21 12.015-18 7.0525-8.7209 6.1851-3.7716 9.0312-.0074 6.9688 3.6968 10.353 12.751 8.6137 16.052 9.6588 21 4.711 12 2.5108 6.5 2.5108 6.5 4.9277 15 6.0741 23 3.356 17 1.7454 10 1.675 16.5 1.675 16.5-.10416 9.047-.10416 9.047-2.247 13.906-.004 38 5.3654 25 .86692 5.5.86691 5.5 1.5947 24.213 1.5947 24.213 1.0053 6.7866 1.0053 6.7866 2.4258 16.5 2.4258 16.5 2.4107 14 2.4107 14 2.2113 13.19 2.2113 13.19-1.2229 4.8723-10.914 16.119-22.729 30.628-5.8466 10-3.4309 7.487 3.9127 23.513 1.8705 5 2.253 12 1.5128 6.2469 1.5128 6.2469-3.1654 41.041.0683 12.733.0683 12.733 2.543 33-3.1814 9-3.1814 9-6.574 17.688 1.8786 9.156 1.8786 9.156v34l-2.8562 8.9929-2.8562 8.9929-4.8989 9.6676-9.1791 14.347-13.86 17-10.35 3.3778-11 .018-6.181-2.297zm34.681-121.42 4.5-.67588.33849-3 .33848-3 .79395-1 .79396-1 3.3293-20 1.9472-7 2.195-20 2.195-20 .025-22-4.462-29-2.9446-11-3.9663-27.489-2.3702-7.9111-5.2132-4.8273-6.7984-2.2721h-11.978l-23.223 2.1711-4.247.80346-4.5134 17.525-4.7127 26-3.3237 26 .0862 62 1.5246 12.5 1.5246 12.5 3.3013 19 .7973 2.5 49.563-.1482 4.5-.67587zm-12.752-196.02.91576-.91576-1.0685-24.368-1.0685-24.368-2.4315-27.5h-14.176l-2.419 26.5-2.1483 49.752 1.8751 1.8751 9.7733 1.4467 9.832-1.5053zm-39.248-7.4686v-1.3163l-.99968-5.9337-.99967-5.9337-1.1631-5.2626-1.1631-5.2626-1.3373-1.1098-1.3373-1.1098v-2.7649l-5.1292-10.49-2.028-7.5-2.0279-7.5-.83447-5-.83446-5-.0582-23 .94151-7 .9415-7 4.9525-26 5.0289-21 5.2837-21 2.1101-11.123 2.1101-11.123 14.07-1.1893 23.974 1.9207 9 1.1818 3.5.96666.0628 6.3652 1.9227 10.5 1.9227 10.5 2.5763 11 2.5763 11 5.0989 22 4.9828 28 .54693 13.923.54693 13.923-1.0936 5.0771-1.0936 5.0771-1.9349 9-1.9349 9-2.1002 6-2.1002 6-1.3063 3-.34546 1-1.1153 3-4.3983 14.647.99741.99741 8.689-5.3717 9.7069-9.2726 7.548-10.083 5.4542-10.763 4.7909-16.006v-16.387l-4.0733-12.751-1.9634-12.238-1.9633-12.238-.029-23.533-1.97-34.001-2.9567-10.344-2.9567-10.344-1.9713-2.3753.15944-36.968.15944-36.968-1.2878-21-1.2878-21-1.3606-13-1.3606-13-4.1371-28-3.1752-14-6.9753-28-2.0206-6.5-2.0206-6.5-7.1913-20.81-8.537-11.19-9.7641-10.913-3.6036 5.9133-3.6028 5.2696-10.139 19.499-5.0692 12.231-4.7846 13-2.1534 7.5-2.1534 7.5-2.4586 10.5-2.4586 10.5-2.4659 16-2.4659 16-.95714 11.5-.95713 11.5-1.9832 25-2.9745 44-1.2279 36-1.4821 9.5-1.4821 9.5-1.7194 14-2.2506 45-3.9885 34-4.3613 16 .1026 24 5.6278 15.852 6.8378 12.148 8.2623 10 7.9503 7 7.142 4.4376 1.5.0624v-1.3163z" fill="#7a7278"/><path d="m166.5 817.79-6-2.0487-7-5.2059-6.3975-6.3696-8.6718-12.669-3.6117-7.5-3.6117-7.5-3.2711-7.5-3.271-7.5-.0792-6 1.3022-16.888 1.3022-16.888-.66909-9.112-.66908-9.112-.9652-6.3743-.9652-6.3743-6.0702-20.251-.032-2 1.215-18 1.215-18-.64883-30.5-.64884-30.5-.81211-4.7146-.81211-4.7146 5.7544-21.571 5.6471-23.839-10.214-15.161-16.226-21.151-11.068-15.849-7.4294-14.641 2.4042-20.359 1.8112-8.4965 5.1208-34.503 3.8888-28 1.9322-11 2.5551-27.895 2.5552-27.895 2.0874-9.1051 2.0874-9.1051 1.9082-9 .0624-41-1.1421-10.5-1.1421-10.5 2.0642-20 .98807-11.5.98806-11.5 2.4747-15.5 2.4747-15.5 4.9373-20 4.223-15 1.7806-3.2353 1.1703-4.3824 1.1702-4.3824 4.8078-10.559v-1.0667l3.1987-6.687 3.1987-6.687 9.6026-16.787v-1.5463l1.6165-.66667 7.2715-11 9.9067-9.7225 9.1722-1.0338 6.0481 2.5052 10.77 11.633 4.9848 8.6184 12.982 26 3.0694 7 7.4032 19 3.4738 10.5 3.4738 10.5 5.057 19 3.7462 19 2.8735 18.152 2.408 32.466-2.2262 24.383-.59465 11-.59466 11 2.058 24 5.0707 20.289.97861 15.356.9786 15.356 1.5463 17.5 1.5463 17.5.5504 2.4143.55039 2.4143 4.8047 33.171 3.196 19 2.4292 13 2.4292 13 1.2413 11.038-12.639 18.962-13.105 17-3.4621 5-7.319 11-4.4816 7-1.7002 3.7054-1.7002 3.7054 4.28 24.589 2.786 9 2.1687 10.978 2.1687 10.978-1.1609 7.0219-1.1609 7.0219-.58563 23.5-.58564 23.5 1.1503 18.5 1.1503 18.5-3.8876 12-5.2193 14-2.9183 6.3023v4.3757l4.2096 24.322-.91748 25-4.5369 15.95-3.1994 6.5249-3.1994 6.5249-9.3387 14.92-13.69 16.161-12.298 3.4191-7.5302-.1578-6-2.0487zm21.611-85.455 3.723-1.4897 2.6936-4.0704 2.6936-4.0704 4.2529-15.104 4.2529-15.104 2.6077-12 2.6077-12 1.5322-12.5 1.5322-12.5 1.0103-6 1.3232-15.673 1.3232-15.673-1.2766-9.3274-1.2766-9.3274-4.1058-25-3.031-11-1.0131-10.5-1.0131-10.5-2.513-5.1802-2.5129-5.1802-10.314-5.1396-14.107.0478-8 1.887-17.203 1.3298-4.3727 15.235-5.0155 25-4.2405 38-.008 45 4.3802 39.552 3.1537 13.448-1.0607 10.603 9.3661 18.113 7.4938 8.5842 7.5062 1.8173 15.888.21148 3.723-1.4897zm-3.0383-230.73 3.3022-1.3885-.22369-5.8615-.2237-5.8615-1.8833-43-.65803-11.25-.65802-11.25h-16.443l-.659 10.75-.65901 10.75-1.9325 45-.20505 5.3731-.20506 5.3731 5.876 2.5914 11.27.1624 3.3022-1.3885zm-36.441-9.8615-.63053-3.25-1.7503-9.5-1.7503-9.5 1.729-15.657 1.729-15.657 4.9553-19.072 6.3388-12.615 15.684-15.5h2.7743l7.9796 11.5 2.6114 5.5957 2.6114 5.5958 4.0426 10.809 4.227 16 4.8164 21 2.0674 8 2.0674 8-.1106 4.4955-4.1227 12.238.95633.95633 13.644-8.9354 3.6453-3.8772 3.6453-3.8772 9.205-13.866 3.2259-8.0671 3.2259-8.0671.0524-27-2.1331-6-2.1331-6-1.1209-10-1.1209-10-.9938-24.662-.99381-24.662-1.0892-7.8376-1.0892-7.8376-2.9982-8.5-2.9982-8.5-.5353-91-1.6598-17.5-1.6598-17.5-1.9824-20-1.993-10-3.897-23-4.9253-21-2.4758-8.5-2.4758-8.5-4.1523-13-5.9398-16.696-1.3744-1.6522-1.3744-1.6522-13.697-16.5-2.1875.06304-10.578 17.437-8.88 18.293-5.2059 13.707-4.9959 16-4.9661 20-4.7026 27.384-.56149 1.8082-.56149 1.8082-1.9758 29-2.016 24-2.016 24-3.0766 64-1.396 6.2885-1.396 6.2886-1.1012 16.711-1.1012 16.711-2.0968 29-2.7867 28-5.0864 22.381.0174 7.8095.0174 7.8095 1.4122 6.6632 1.4122 6.6632 6.8923 14.917 8.0624 11.756 9.6861 9.3124 9.8916 6.1876h1.8701l-.63052-3.25z" fill="#554d47"/><path d="m169 818.08-6.5-1.7384-4.7886-2.5675-9.001-8.2752-7.8016-10.538-10.909-21.372v-1.5311l-5.3104-11.559 2.7889-35-.23132-6.5-.23131-6.5-1.4899-11.531-1.4899-11.531-5.3707-16.937.1228-6 .7149-37 .71489-37-1.0072-15.745-1.0072-15.745 1.8576-7.7553 1.8576-7.7554 7.3789-28.505-11.684-17.495-1.1267-1-6.9873-9.5785-9.5943-12.294-8.6677-13.127-7.2552-14 2.9089-20 5.009-33 4.1326-30 1.9356-9 1.5079-15.5 1.5079-15.5 1.9796-15 .65039-9.9324.6504-9.9324 2.8656-11.135 3.1471-14-.1164-47-1.7758-20 1.2392-6 7.3753.58656.0254-1.5866 2.9198-35 2.4025-12.403 1.4308.88426 1.3677 5.4495 3.6581 8.0694 2.2792 9 2.1874 4.3746-4.2354 42.625-1.0204 20-1.0204 20-1.0482 18.5-1.0482 18.5-2.0524 11.864-2.7893 27.136-3.0977 52-1.895 14-5.2442 25-.49197 6.7501-.49198 6.7501 2.2103 9.7499 2.2103 9.7499 8.8275 16.924 8.3769 10.858 12.011 9.7185 6.6622 2.1987.3342-.34967.3342-.34966-2.8851-15-1.8529-9.8554.90051-8.0723.9005-8.0723 3.266-21 1.7221-7 4.5661-12 5.1163-8.1597 4.9641-5.8403 9.575-7.8024 5.7014 5.4623 9.2243 18.34 5.1365 16 4.9178 21 1.9406 8.7148 1.9406 8.7148 1.5679 4.7937 1.5679 4.7937-2.4516 7.4916-2.4517 7.4916.86013.31485.86013.31486 4.6109-2.3551 9-6.1347 12-13.508 8.3715-15.632 3.4856-15v-16l-3.575-16-.79702-1-.79701-1-1.094-10.924-1.094-10.924-.1878-31.153-.76366-9-.76365-9-1.7459-9.5-1.7459-9.5-2.2622-5-2.2622-5-.60942-51-.60941-51-1.9306-17-1.5816-15.5-1.5816-15.5-.97727-5-.97726-5-3.0123-18-4.2321-18-5.8818-22-2.1027-5-3.5861-12-2.2356-5.7528-2.2356-5.7528 10.733-11.494 2.5521-1.5994v2.354l5.8032 12.245 4.0563 9 7.1405 18.457v1.2408l1.409 3.1511 1.409 3.1511 5.2356 17 4.1352 16 4.8829 26 1.4208 12.37 1.4209 12.37.54928 22.261-1.3545 19.5-1.3545 19.5 1.3912 23.916.99962 5.542.99963 5.542 3.0932 9 1.318 19.5 1.3181 19.5 1.5405 15.5 1.5405 15.5 1.0159 6.5 1.0159 6.5 4.0556 29 1.2256 3 4.5928 28 3.2917 18.628-8.1734 13.372-4.2488 6.0116-4.2488 6.0116-13.118 16.977-9.292 14.163-2.9989 5.701-2.9989 5.701 1.0079 4.7174 1.0079 4.7174 3.6872 19 3.0586 11 2.3489 13.27-1.0916 15.77-1.0916 15.77.128 45.19 1.6802 24-4.4784 13-7.632 20.919 3.6534 25.081.39141 9.1834.3914 9.1834-2.1666 10.317-2.1666 10.317-4.9509 11.796-6.2273 11.204-9.6179 13-4.5048 5.6906-6 6.6107-14.745 3.1987-1.2547-.1806-6.5-1.7384zm18.69-60.968 12.19-.69515 4.3954-3.918 2.724-6.4358v-1.1738l-59.836.60959-1.4038 1.4069.67904 2.7055.67904 2.7055 6.9709 6.9709 21.411-1.4805zm3.3052-26.061 3.4955-2.7658 4.4678-8.7867 1.5677-6.5 1.5677-6.5 1.8993-6.5 1.8993-6.5 4.9663-23 4.1682-28.023 1.4895-18.353 1.4895-18.353-2.0355-15.636-2.0355-15.636-.62901-2-.62902-2-4.7901-24-1.8187-16.762-2.1063-6.3821-6.4623-6.2332-5.6302-2.1227-15.37-.00141-25.368 2.4171-1.906 4.1831-3.3735 15.901-1.801 5-4.1357 28-1.1467 7.5-1.1467 7.5v67l2.2835 15 4.2659 29-.55775 4.1854-.55775 4.1854 12.618 22.549 7.5012 6.0801 16.325 1.2019 8-.88348zm-2.4955-230.2 4-1.8122-3.1821-.044-1.1859-23.75-1.1859-23.75-.8892-11.5-.88919-11.5-.0839-3.25-.08387-3.2499h-17l-.1678 6.5-.88919 11.5-.8892 11.5-1.1859 23.75-1.1859 23.75-3.1821.0782 7 3.2061 8 1.4096 9-1.0257 4-1.8122z" fill="#463e45"/><path d="m168.95 817.86-7.3028-1.8546-4.8167-3.156-8.1372-7.3459-7.7184-10.442-10.969-21.558-.005-.72036-.005-.72037-5.2654-11.511.66161-10.524.66162-10.524 1.0712-8.9659 1.0712-8.9659-2.3149-19.068-1.029-7-1.0289-7-5.1969-15.969.1618-6.0315 1.3817-75-1.9062-30.99 3.8555-15.01 5.0161-19 1.0118-5.1462 1.0118-5.1462-5.663-7.9715-3-4.5155-9-11.899-4-5.6483-5.5977-7.3365-5.5984-7.3365-5.2058-8.3038-6.9731-13.696 2.8874-21 5.0071-32 4.8784-34 1.1148-4 4.1126-40 2.6945-31 1.5217-4.5 1.5217-4.5 2.5175-13-.61012-49-.13557-11.5-.13556-11.5 7.294.63291.5691-4.8165.56909-4.8164.59056-8.5.59057-8.5 1.8392-10 .59568-5.75.59567-5.75h1.4125l8.9436 26.449-.14835 6.0256-.14834 6.0256-1.5576 14-1.5576 14-1.0493 21-1.0493 21-1.0256 17.5-1.0256 17.5-1.5324 12.5-1.5324 12.5-.94721 6-.94722 6-1.5461 29.152-1.5461 29.152-5.6964 31.697-1.0713 4-1.0713 4-.0238 7.0528-.0239 7.0528 4.7743 18.326 3.1996 6.3674 3.1996 6.3674 10.104 13.492 11.243 9.3417 7.9789 3.2036 11 3.5166 8.8781 4.002h14.264l11.541-5.2789 9.3169-2.4064 11.521-6.6454 10.749-10.664 7.8368-11.728 5.3454-12.145 1.5236-7.2429 1.5236-7.2429v-11.59l-7.137-28.779-1.8201-60-2.0408-10-2.1919-11-4.5751-11-.596-51.5-.59601-51.5-1.8434-16-3.233-30-3.2444-18-3.5568-18-1.9924-8.5358-1.9924-8.5358-3.0136-9.9283-7.4505-24-1.5086-2-1.0887-3.9865-1.0886-3.9865 11.407-11.527 1.0626.000475 6.2984 13.5 4.9491 11 2.5132 8 1.4787 2 2.4968 8 2.607 6 3.2338 12 .92526 2 .92525 2 4.215 17 4.8869 26 .94678 7 .94679 7 .95871 14.279.95872 14.279-2.1133 20.443-.0839 22-.0838 22 2.6372 16 1.6262 2 2.13 12 .95539 16.5.95538 16.5 3.1359 31 2.0885 13 2.4245 15.5 2.4245 15.5 2.4387 14 2.4387 14 3.277 18.73-4.0564 6.635-4.0564 6.635-4.2488 6.0116-4.2488 6.0116-13.08 16.977-3.9009 5.7487-5.371 8.2513-6.0476 11.656.94844 4.6718.94843 4.6718 5.1169 24 3.997 19-1.0444 16-1.0444 16 .1644 45 1.4157 23-.84348 3.958-.84347 3.958-2.778 6.0841-7.1185 19.277.0704 6.7233 3.0244 19 .55726 9 .55727 9-4.9772 24.068-7.1228 14.932-8.4274 13-2.4067 3-2.4068 3-6.7149 8-3.6535 4.4109-15.242 2.8002-7.3028-1.8546zm29.981-61.713 3.4355-1.6434 1.7321-2.5 1.7321-2.5 1.2996-4.5h-62.27l1.3572 4.5 3.0383 6.5692 4.2393 2.9813 42-1.2637zm-12.784-22.169 3.6516-1.0142 6.7845-7.5096 2.0683-5.9754 2.0683-5.9754 3.117-12 2.0827-8 4.1519-18.022 3.0047-18.978.9453-6.5.94531-6.5 1.6342-17.5 1.6342-17.5-.0017-4-4.1991-30-2.0972-8-4.1802-21-.77402-7.6617-.77403-7.6617-1.1255-3.4104-1.1255-3.4104-6.4623-6.2332-5.6302-2.1227-15.37-.00141-25.432 2.4231-2.0339 5.0783-4.2143 17-2.3887 14.5-2.3887 14.5-1.2384 9-1.2384 9 .0768 66 2.2018 16 4.3319 27.998-1.2419 7.7666 9.3256 18.236 4.7357 6.3606 6.5008 4.6394 16.004 1.1616 3 .32724 3.6515-1.0142z" fill="#443832"/><path d="m168.27 817.54-6.2287-1.4077-7.5426-5.6252-8.693-9.0091-1.4292-2.75-1.4292-2.75-1.4486-.023-1.9928-4.2385-1.9928-4.2385-2.5144-2.6429v-1.8071l-6-13.1v-1.2309l-4.3354-8.6808 2.6048-24.538.45617-10.5.45616-10.5-1.099-6.5-1.099-6.5-3.0292-18.765-1.4545-2.2353-3-10.946.82295-14.027.82296-14.027-1.2702-78 .0954-6 3.15-11 5.0638-19 2.1692-11.339-11.854-17.128-5-6.7934-17.124-22.74-4.2522-7-6.5024-12.711.23849-4.1444.23849-4.1444 2.7717-14 1.1025-9.5 1.1025-9.5 2.8656-14 2.1128-18 3.0008-17 4.0842-37 1.8505-25 1.0333-6.9311 1.0333-6.9311 1.6794-2.1378 2.7648-17-.37081-24.5-.3708-24.5-.1292-10.5-.12919-10.5 6.4022-.0688.68615-.68616.68615-.68615 1.621-16.559 3.0832-28 .0822-3 1.8133 3.0975 6.1818 16.903 1.4108 5.379 1.4108 5.379-1.9329 17.621-1.9329 17.621-1.5382 26.5-1.5382 26.5-1.6458 29-1.2516 11-1.2516 11-.87566 2-.87567 2-3.1766 66-1.8583 1.9v6.8613l-3.1997 20.239-2.3003 2.8095v30.024l2.5.83288v3.6037l1.6519 5.1148 1.6519 5.1148h1.4794l1.1483 4.5 6.5685 10.001 4 4.8357 7 6.7904 3 2.6208 11 6.062 7 1.4166 8 3.5871 11.926 2.1972 12.074-2.1891 8-3.5953 7-1.4381 11-6.1973 14.446-14.048 1.1481-2.7718 1.1481-2.7718h1.5592l1.849-4.4962 1.8491-4.4962 1.2779-.008 3.3924-13.5 2.0116-3.7641.0526-20.388-2.1419-3.8481-3.0925-13.128v-4.9722l-2.1146-2.1146-1.765-61.785-1.2759-9-1.6239-4-1.1003-5.2829-1.1003-5.2828-3.7961-8.4343-1.2504-108-1.7959-14-1.5825-14-1.5825-14-1.0367-5.5-1.0367-5.5-3.9486-23-1.8929-4-1.6535-8.5-1.6535-8.5-.76434-1-.76433-1-1.2499-5.5-1.2499-5.5-2.6053-6-3.1327-11.225-1.5059-2.8875-1.5059-2.8875-.006-2.0313-.006-2.0313 11.792-11.669.74163 2.3657.74162 2.3657 3.4343 7.5 3.4343 7.5 1.3101 3 1.31 3 1.2697 4 1.2697 4 2.4588 4 1.3922 6 2.689 6 3.2338 12 1.8904 4 4.2343 18 3.7688 22 1.0131 4.5 1.0131 4.5 2.2609 25-1.7577 40 .1336 35 2.5442 17 1.5335 2 2.2887 9.3856.0633 8.8072.0632 8.8072 1.7112 21 4.9925 43.416 1.0545 1.7063 3.2107 24.878 1.8431 7 1.6009 11 1.6009 11 2.6519 11 1.1698 8.1148-11.232 16.885-9.5989 13-3.1695 4-7.4614 10.222-2.4633 3.778-2.2992 3.5-2.2992 3.5-6.6566 11.857 2.0926 11.143 4.1172 21 .96708 2.5.96707 2.5 3.1066 16.89-2.194 30.11.331 37.5.33099 37.5-1.6622 3.5-1.6622 3.5-5.4146 15-2.1406 7.3736 1.8264 14.813 1.8264 14.813.48699 3.9449.48698 3.9449-2.4262 14.11-1.5552 7.75-1.5552 7.75h-1.3941l-2.3872 7.9676-4.4294 7.095-8.7041 13.437-12.296 15.456-7 1.9772-11 1.0168-6.2287-1.4077zm32.729-61.469 2.5-1.7494 4.5628-8.5946-.79387-.79388-62.544.006-.86396.86396 4.2305 9.2865 4.061 4.061 46.347-1.3301 2.5-1.7494zm-13-22.507 2.5-.83612 4.236-4.23 2.5088-5 2.5088-5 1.3577-7 4.7052-17 5.0527-22 .6452-5.5.64519-5.5 1.7367-7 3.125-35 1.0557-6.5 1.0557-6.5-1.0976-6.5-1.0976-6.5-1.9777-14-1.9777-14-1.8151-4-2.4642-13-.71719-7.5-.7172-7.5-1.4983-5.2909-1.4983-5.2909-4.7718-5.1759-6.4358-2.7422h-18.447l-23.117 2.2787-2.1744 1.696-2.6908 14.525-1.4946 1.0314-3.3557 23.969-1.7063 4-2.5781 24v66l2.5781 24 .85886 2 .85885 2 2.2685 16.246-1.2268 7.7545 10.466 20 4.9796 6 4.0911 2.8757 6.9228 1.1243 16.203-.0978 2.5-.83612z" fill="#3b2f28"/><path d="m143.8 742.53-1.705-2.2874-2.3716-9.4184.64346-8.3711.64346-8.3711 1.1578-2.5412 1.1578-2.5412h1.6502l6.2726 12.426 4.6806 7.4146 6.9552 5.305 18.62.87414 7.6618-1.2228 6.8382-6.0041v-2.5479l2.8243-2.344 2.3014-10.401 2.3301-8 2.3301-8 4.1091-18 .63745-4 .63746-4 2.7438-14 1.6075-15.5 1.6075-15.5 1.1446-11.449.75938.46932.75937.46932 1.1388 8.2553 1.1388 8.2553.99336 10 .99335 10 1.9081 41.969-2.1486 7.0156-2.1486 7.0156-6.5964 18-5.9001 14-1.2425 2.5-1.2425 2.5-61.186.3179zm-18.483-484.53-1.069-2.5-2.2412-11-1.558-13-1.558-13-.83262-12-.83261-12 .41705-.69848.41706-.69849 3.9135-42.603.1122-3 2.8746 5.2915 7.1572 19.708-.0527 6.7544-.0527 6.7544-1.8647 8.4911-1.1317 17.5-1.1317 17.5-.7488 15.5-.74881 15.5-1.069-2.5z" fill="#211312"/></g>
</svg>
