<?xml version="1.0" encoding="UTF-8"?>
<svg width="300" height="300" viewBox="0 0 300 300"
     xml:space="preserve" xmlns="http://www.w3.org/2000/svg"
     xmlns:svg="http://www.w3.org/2000/svg" xmlns:xlink="http://www.w3.org/1999/xlink">
  <g transform="matrix(0,1.1666666,1.1666666,0,0,0)">
    <!-- Image : -->
    <g transform="scale(-.233333 .233333) translate(-580 260) rotate(90 60 20)">
        <image x="0" y="0" width="608" height="198" xlink:href="./Shotgun.png"/>
    </g>

    <!-- Contour de la tuile : -->
    <g style="fill: #9a9a9a">
      <!-- Top edge: -->
      <path d="M 42.9,39 h 0.48 v 171 h -0.48 Z"/>
      <!-- Left edge: -->
      <path d="M 42.9,39 h 171 v -0.48 h -171 Z"/>
      <!-- Right edge: -->
      <path d="M 42.9,210 h 171 v -0.48 h -171 Z"/>
      <!-- Bottom edge: -->
      <path d="M 213.9,39 h 0.48 v 171 h -0.48 Z"/>
    </g>

    <!-- États : -->
    <g style="font-size: 12px">
      <text x="50" y="100" transform="rotate(90 50 100)">💉💉💉</text>
      <text x="150" y="45" transform="rotate(180 150 45)">💉💉</text>
      <text x="328" y="10" transform="rotate(270 328 130)">💉</text>
    </g>
    <!-- Triangles de rotation -->
    <g style="fill: black">
      <!-- Après INDEMNE : -->
      <path d="M 49 157 h 10 l -5 7 Z"/>
      <!-- Après BLESSÉ : -->
      <path d="M 97 44 v 10 l -7 -5 Z"/>
      <!-- Après MUTILÉ : -->
      <path d="M 199 90 h 10 l -5 -7 Z"/>
    </g>

    <!-- Internal square: -->
    <g style="fill:#000000">
      <!-- Top side: -->
      <path d="m 62.76,190.191 h 1.5 V 58.251 h -1.5 z"/>
      <!-- Left side: -->
      <path d="M 64.26,59.751 H 193.2 v -1.5 H 64.26 Z"/>
      <!-- Right side: -->
      <path d="M 64.26,190.191 H 193.2 v -1.5 H 64.26 Z"/>
      <!-- Bottom side: -->
      <path d="m 193.2,190.191 h 1.5 V 58.251 h -1.5 z"/>
    </g>
  </g>
</svg>
