<?xml version="1.0" ?><svg xmlns="http://www.w3.org/2000/svg" width="184.8214mm" height="218.58304mm" viewBox="0 0 184.8214 218.58304">
    <path d="m 5099.7897,1971.0896 c 0,0 -6.6736,3.6227 -11.1229,11.6623 -4.4489,8.0397 -8.4387,41.3107 -8.4387,41.3107 l -11.8288,-4.7667 c 0,0 0.9537,11.1856 3.39,21.7356 2.4362,10.55 -3.5311,24.278 -4.9434,30.5698 -1.4124,6.292 -6.4971,14.6492 -8.9333,20.5915 -2.4363,5.9423 -1.8715,10.2324 -3.7429,10.2004 -1.8714,-0.032 -11.6874,3.6545 -14.0885,6.3236 -2.4008,2.6694 -2.0126,4.8621 -6.9206,6.3557 -4.9078,1.4935 -8.6155,7.8169 -9.7808,11.7889 -1.1652,3.9722 -0.6002,10.169 -2.4716,12.7429 -1.8714,2.5741 -7.3089,12.6789 -6.8146,16.2063 1.0239,6.1965 23.6927,6.7689 26.5529,6.6099 2.8599,-0.1588 11.899,-1.4303 13.4881,-3.4639 1.5888,-2.0339 5.0844,0.9535 5.0844,0.9535 0,0 -4.5198,8.2938 -2.4365,11.7574 2.0831,3.4637 9.8866,5.8786 31.0017,6.2916 21.1151,0.4133 22.8807,-7.9439 22.1743,-9.3105 -0.7062,-1.3663 4.6257,-1.3664 5.2612,-0.2543 0.6355,1.1123 10.5929,3.3372 13.7708,3.2732 3.1776,-0.064 29.2358,-5.4974 33.6144,-8.262 4.3783,-2.7646 0.106,-10.1054 0.106,-10.1054 l 22.7392,-4.9252 c 0,0 0.1059,-6.8005 -1.3064,-10.6139 -1.4124,-3.8132 -10.2397,-7.7855 -10.2397,-7.7855 0,0 -3.3191,-6.4189 -6.1438,-9.5013 -2.8249,-3.0822 -11.5109,-6.5779 -11.5109,-6.5779 0,0 -4.3787,-4.6393 -6.3914,-6.9272 -2.0127,-2.2881 -14.1588,-6.4192 -14.1588,-6.4192 0,0 3.5308,-20.2418 5.6493,-27.6779 2.1186,-7.4358 -0.6,-29.8705 -0.6,-29.8705 0,0 -7.4153,9.279 -10.6991,13.6642 -3.2837,4.3852 -11.4401,13.2192 -11.4401,13.2192 -2.9,-8.8964 -1.1842,-38.1138 -5.8685,-47.0192 -5.4497,-8.1037 -11.6773,-24.2769 -11.9625,-28.6106 -0.3177,-4.8299 -0.9885,-23.1655 -0.9885,-23.1655 z m 32.0561,20.999 c -0.07,0.012 -0.1225,0.054 -0.1556,0.1271 -0.5297,1.1758 -5.3671,14.0459 -6.5675,16.461 -2.7618,4.9144 -3.3489,10.4692 -2.7317,13.7349 2.5896,12.9654 6.855,12.7578 14.1361,7.7145 2.6131,-1.8113 3.3192,-15.4438 2.2598,-23.8012 -0.9929,-7.835 -5.8958,-14.4132 -6.9411,-14.2363 z m -73.1916,55.9022 c 0,0 -6.7091,8.6115 -7.7685,13.0602 -1.0594,4.4489 -0.4942,10.3279 3.1073,11.5672 0,0 5.2611,-7.3089 6.0027,-11.7259 0.7414,-4.417 -1.3415,-12.9015 -1.3415,-12.9015 z" fill="#FFFFFF" paint-order="markers stroke fill" transform="translate(89.8938,294.28725) translate(-5094.4625,-2256.5165)"/>
    <path d="m 5070.2694,2180.0041 c -2.1717,-0.4274 -6.5727,-2.2442 -9.7802,-4.0379 -6.4246,-3.593 -7.6288,-5.7387 -5.9402,-10.5833 1.4773,-4.2372 1.2685,-4.6468 -1.4584,-2.8601 -2.0786,1.3619 -4.5342,1.6104 -15.7052,1.5895 -11.6647,-0.026 -13.8687,-0.2748 -18.5056,-2.1247 -7.3561,-2.9347 -8.5931,-5.0669 -7.1241,-12.28 1.3439,-6.5991 2.7494,-9.0315 6.7248,-11.6399 2.8606,-1.8768 2.9349,-2.0949 3.0567,-8.9631 0.07,-3.8718 0.6127,-7.9504 1.2089,-9.0643 0.5959,-1.1136 3.5437,-3.1886 6.5506,-4.6104 3.9155,-1.8519 5.9182,-3.4461 7.0574,-5.6184 1.7196,-3.2784 6.189,-5.9949 10.5508,-6.4127 4.1889,-0.4013 4.0795,1.3487 -0.2116,3.411 -2.1201,1.0184 -4.3734,2.3836 -5.0075,3.0335 -0.9405,0.9642 -0.5634,1.1337 2.0471,0.9208 6.5,-0.5301 7.0179,3.1664 0.5675,4.0503 -4.3897,0.6019 -15.0799,5.1479 -16.6348,7.0742 -1.1892,1.4734 -3.3331,10.8737 -2.6384,11.5685 0.2555,0.2555 2.0967,-0.271 4.0911,-1.1702 3.3525,-1.512 4.0225,-1.5317 8.886,-0.2611 3.5375,0.9242 7.1338,1.1892 10.981,0.8098 l 5.7211,-0.5641 3.5014,-6.3356 3.5011,-6.3356 -2.5854,-3.2242 c -3.4924,-4.3549 -5.7222,-13.3928 -5.1717,-20.9628 0.3487,-4.797 1.3059,-7.6764 4.9988,-15.0376 7.3266,-14.6037 9.4578,-21.4049 9.9856,-31.8656 0.3592,-7.1202 0.041,-11.0706 -1.4533,-18.1265 -3.5689,-16.8359 -2.8468,-17.6192 9.9526,-10.7917 0.2664,0.142 0.5327,-3.3307 0.5921,-7.7176 0.2671,-19.7818 13.129,-48.5846 22.1497,-49.6014 5.0288,-0.8367 2.7011,10.5871 2.8505,14.3118 0.3213,8.0119 1.0736,17.0253 1.6721,20.0299 1.398,7.019 5.9379,17.9706 8.3543,20.1545 4.0408,3.6513 6.3854,10.2119 7.3661,20.6123 1.3077,13.8653 -0.84,23.1206 -4.7974,20.6745 -1.0365,-0.6403 -1.3493,-3.2717 -1.4283,-12.0113 -0.1187,-13.1388 -1.3549,-17.8152 -6.5201,-24.6665 -3.9571,-5.2488 -6.7712,-11.4964 -8.2833,-18.3905 -1.8817,-8.5788 -2.8655,-18.7991 -2.2851,-23.7385 0.3195,-2.7173 0.3312,-4.9407 0.026,-4.9407 -0.3047,0 -2.2486,3.585 -4.3192,7.9665 -4.9915,10.5619 -7.9094,22.3765 -8.649,35.0206 -0.3306,5.651 -0.7815,10.5816 -1.0019,10.9571 -0.8534,1.4543 -3.3419,0.5531 -6.9132,-2.5036 -4.0725,-3.4859 -5.8011,-4.0713 -4.7071,-1.5934 1.949,4.4136 4.8651,17.6929 4.9066,22.3443 0.054,5.9131 -2.013,16.9801 -4.1481,22.2222 -0.7753,1.9028 -3.6903,8.0619 -6.4781,13.6873 -3.4159,6.8928 -5.2119,11.7194 -5.5082,14.8034 -0.448,4.662 1.0682,14.5803 2.6931,17.6181 0.855,1.5983 1.0032,1.58 3.0962,-0.3863 1.8215,-1.7113 2.1944,-2.9354 2.1761,-7.1416 0,-2.7919 -0.4374,-6.8773 -0.9448,-9.0782 -0.8264,-3.5845 -0.7126,-4.2253 1.0914,-6.1454 1.1874,-1.2638 3.0629,-2.1439 4.5693,-2.1439 2.6841,0 2.6211,-0.1135 4.2754,7.7388 l 0.7672,3.6418 1.1957,-2.5032 c 0.989,-2.0703 0.9862,-3.1377 -0.026,-6.1727 -0.9631,-2.9189 -0.9802,-3.897 -0.083,-4.7804 3.7554,-3.696 13.0452,20.9894 11.4505,30.4271 -0.7038,4.1659 -2.573,6.0494 -4.4539,4.4883 -1.565,-1.2987 -1.6812,-0.9717 -3.7517,10.5745 -1.6623,9.2682 -2.939,11.8392 -5.4089,10.8915 -1.6334,-0.6269 -1.6254,-1.6094 0.067,-8.3577 0.421,-1.6775 0.3102,-2.3191 -0.3321,-1.9221 -0.5301,0.3275 -1.2478,2.2757 -1.5947,4.329 -0.7185,4.2521 -3.1757,7.1824 -6.0228,7.1824 -4.2591,0 -9.1667,-2.2593 -12.2,-5.6166 -1.733,-1.9183 -3.8348,-3.4877 -4.6704,-3.4877 -1.0298,0 -0.319,1.1082 2.2055,3.4389 4.2057,3.8826 5.2587,6.8087 4.3946,12.2116 l -0.5962,3.729 2.5989,-2.7821 c 1.47,-1.5738 4.351,-3.2666 6.6324,-3.897 4.5515,-1.2579 12.9693,-1.4982 16.1891,-0.462 1.979,0.6369 2.0977,0.4929 1.5722,-1.9054 -0.8439,-3.8519 0.8344,-11.1787 4.1716,-18.2122 1.6267,-3.4281 3.1811,-7.8717 3.4544,-9.8747 0.3913,-2.8693 0.8829,-3.6417 2.3176,-3.6417 3.0567,0 6.3242,7.8428 6.3511,15.2435 0.026,6.7157 1.7129,8.5933 2.0484,2.2778 0.1135,-2.1256 0.4253,-4.7755 0.6942,-5.8889 0.3719,-1.5407 0.16,-1.8982 -0.8883,-1.4958 -1.6135,0.6191 -1.7999,-1.1671 -0.4829,-4.631 0.7278,-1.9142 0.5453,-2.7006 -0.9807,-4.2268 -1.0313,-1.0311 -1.693,-2.3553 -1.4703,-2.9424 0.222,-0.5874 1.3573,-4.033 2.522,-7.6572 l 2.1173,-6.5893 -2.018,-11.6196 c -1.11,-6.3908 -2.1108,-14.078 -2.2241,-17.0823 l -0.2064,-5.4628 -3.4132,6.8283 c -2.2884,4.5784 -3.7702,9.1737 -4.4973,13.9454 -0.9373,6.1523 -1.3074,7.0587 -2.7315,6.6863 -0.9061,-0.2374 -1.8767,-0.059 -2.157,0.3943 -0.8834,1.4293 -2.2234,0.8961 -2.2234,-0.8846 0,-0.94 0.6145,-2.2193 1.3658,-2.8428 0.814,-0.6757 1.3614,-2.651 1.3554,-4.8911 v -3.7582 l -2.332,2.9589 c -4.0407,5.1275 -6.7217,2.6892 -3.6257,-3.298 1.9281,-3.7282 3.8779,-5.1232 5.398,-3.8614 0.9998,0.8297 1.6124,0 3.1537,-4.2132 3.1447,-8.6191 11.4605,-20.2654 14.47,-20.2654 1.1714,0 1.2597,0.9195 0.59,6.1456 -1.3792,10.7669 -0.6357,17.7221 2.8301,26.4643 2.1199,5.348 3.1455,7.1127 3.1708,5.4551 0.026,-1.3475 0.4555,-2.7086 0.9665,-3.0245 2.0912,-1.2922 6.4344,14.6574 6.5113,23.9111 0.057,6.8962 1.0739,7.2384 6.1036,2.0556 5.3077,-5.4692 6.1545,-8.1741 4.3288,-13.8271 -2.2296,-6.9029 -2.6848,-13.352 -1.2736,-18.0406 1.772,-5.8883 4.1489,-6.0406 4.5161,-0.2893 l 0.28,4.3812 1.6177,-5.2318 c 1.7054,-5.5147 4.5894,-25.2075 4.1205,-28.1338 -0.2091,-1.2984 -2.3385,0.5386 -8.7123,7.5132 -6.4858,7.0975 -8.6686,10.1536 -9.44,13.2176 -1.499,5.9523 -3.7729,5.0292 -3.6828,-1.4951 0.064,-4.703 1.6383,-7.4593 8.8382,-15.4812 7.0112,-7.8115 10.8811,-13.1874 12.8007,-17.782 1.4561,-3.4848 3.7817,-4.9917 4.9033,-3.1769 0.3861,0.6248 1.1949,4.7438 1.7975,9.1536 1.7816,13.0366 -0.7629,33.8441 -5.4284,44.3913 -1.2277,2.7754 -1.8071,6.0801 -1.8071,10.3087 0,3.9871 -0.6271,7.8149 -1.7454,10.652 -1.7304,4.3902 -1.7296,4.4632 0.093,8.4555 3.2381,7.0907 5.2937,13.7778 5.2937,17.2232 v 3.3517 l 4.2204,0.16 c 6.0714,0.2297 11.3597,2.914 15.442,7.8384 l 3.554,4.287 5.4628,-0.59 c 3.0043,-0.3247 7.2433,-1.0326 9.4196,-1.573 3.7866,-0.9404 3.9332,-1.1025 3.401,-3.7638 -0.8684,-4.343 -2.6414,-6.3622 -7.9395,-9.0429 -6.6505,-3.3648 -11.2268,-3.2944 -16.1174,0.2478 -4.2428,3.0734 -4.6968,3.2226 -4.6968,1.5443 0,-1.3787 5.0034,-6.3196 7.9065,-7.8082 1.094,-0.5608 3.04,-1.0197 4.3249,-1.0197 5.1216,0 1.3307,-7.116 -4.7639,-8.9419 -5.6426,-1.6905 -8.6923,-1.3069 -12.7026,1.598 -2.028,1.4693 -3.9574,3.1081 -4.2873,3.642 -0.3301,0.5337 -1.4235,0.9704 -2.4303,0.9704 -3.6278,0 -1.5704,-3.8831 4.032,-7.6097 4.9889,-3.3184 5.2101,-3.6204 4.0033,-5.4626 -0.7025,-1.0725 -3.0087,-3.282 -5.1249,-4.9099 -3.1076,-2.3904 -3.5541,-3.0727 -2.3212,-3.5458 2.5872,-0.9928 9.7575,2.6128 12.075,6.0719 1.6721,2.4961 3.0756,3.3857 6.6381,4.2087 2.4848,0.574 5.5296,1.7067 6.7663,2.5171 2.5156,1.6481 5.9142,7.6802 5.9142,10.4963 0,1.2164 1.1851,2.4436 3.5003,3.6248 10.0226,5.1131 13.1675,16.6459 5.6055,20.5563 -1.5443,0.7988 -6.2181,1.9449 -10.3861,2.5475 -7.1914,1.0393 -7.5411,1.1949 -6.8528,3.0552 1.2924,3.4926 -0.1136,5.7229 -5.662,8.9742 -13.6228,7.9839 -31.5955,10.6822 -42.3886,6.3637 -5.9059,-2.363 -6.4647,-4.4888 -3.5252,-13.4049 1.3663,-4.1443 2.6874,-8.0291 2.9354,-8.6333 0.3004,-0.7319 -1.0893,-1.3028 -4.1641,-1.7106 -4.721,-0.6263 -5.6958,-1.503 -3.2149,-2.8915 0.9763,-0.5463 1.1831,-1.3521 0.6829,-2.6616 -1.0158,-2.66 -4.8142,-1.2251 -4.8142,1.8185 0,2.675 -3.0505,5.5995 -5.0434,4.8348 -1.086,-0.4168 -1.3996,-1.5273 -1.2024,-4.2593 0.1806,-2.4895 -0.1678,-3.9716 -1.0682,-4.5402 -2.1767,-1.3766 -2.5904,-1.0449 -3.1728,2.5419 -0.9062,5.5797 -2.0118,7.395 -4.9707,8.1618 -2.6177,0.6782 -2.7028,0.8346 -1.439,2.6388 1.0498,1.4989 2.6037,2.019 7.1124,2.3811 8.218,0.6596 11.0722,2.4303 14.3345,8.8931 5.348,10.5942 3.6346,12.4052 -13.4485,14.2138 -12.8934,1.3652 -21.4488,1.4561 -27.3717,0.2911 z m 34.4359,-6.8997 c 3.0799,-1.8192 3.3233,-2.9308 1.4393,-6.5744 -1.0762,-2.0809 -2.7243,-2.9594 -9.3879,-5.0034 -6.6814,-2.0496 -8.3574,-2.9447 -9.6684,-5.1644 -1.9284,-3.2645 -4.453,-3.9827 -11.8996,-3.3847 -8.4627,0.6792 -10.4966,1.9929 -14.0545,9.0772 -1.6881,3.3615 -2.8441,6.6989 -2.5687,7.4164 1.9129,4.9851 38.9185,7.8991 46.1398,3.6333 z m 41.2074,-6.2334 c 5.343,-1.1039 14.4424,-4.8163 16.3432,-6.6681 0.9721,-0.9469 -2.0283,-9.4514 -4.184,-11.8598 -3.8898,-4.3453 -8.4762,-5.8844 -15.8683,-5.3254 -10.1715,0.7693 -16.0219,4.0288 -19.9305,11.1044 -5.6319,10.1946 -6.1139,11.3495 -5.1438,12.3199 2.7648,2.7648 16.4866,2.9692 28.7834,0.429 z m -94.5071,-8.8545 c 0.7988,-1.1402 1.4174,-3.9066 1.4174,-6.3377 0,-5.5309 -1.4868,-6.9604 -12.7463,-12.2567 -8.2447,-3.8779 -8.7771,-4.0064 -11.3806,-2.7455 -1.5023,0.7278 -4.4008,2.7703 -6.4414,4.5389 -3.0108,2.6099 -3.9267,4.1847 -4.8609,8.3595 -0.6331,2.829 -0.9054,5.3894 -0.605,5.6898 0.3004,0.3004 3.3073,1.4871 6.682,2.6374 4.936,1.6821 8.1282,2.0953 16.3266,2.1144 9.5126,0.026 10.2853,-0.111 11.6082,-2.0001 z m 41.8926,-19.8742 c 4.1194,-13.04 2.6928,-13.6607 -1.891,-0.8225 -2.1691,6.0754 -2.5942,8.153 -1.668,8.153 0.756,0 2.1509,-2.8732 3.559,-7.3305 z m 34.9481,2.8863 c 0.8852,-0.561 0.9725,-1.247 0.3167,-2.4897 -0.4981,-0.9435 -2.2143,-4.5094 -3.8142,-7.9243 -1.5996,-3.4149 -3.0536,-6.0636 -3.2311,-5.8863 -0.7224,0.7224 3.6128,17.1017 4.5228,17.0888 0.5412,0 1.5338,-0.3624 2.2058,-0.7885 z m -10.7955,-1.7012 c 0,-0.8765 -0.4111,-2.2079 -0.8965,-2.9589 -0.6697,-1.0365 -0.886,-0.6522 -0.8966,1.5931 0,1.6275 0.3959,2.9592 0.8966,2.9592 0.5006,0 0.9043,-0.7172 0.8965,-1.5934 z m -45.7193,-7.7388 c 11.8657,-18.1936 12.6513,-19.811 11.7733,-24.242 l -0.7897,-3.9842 -2.7215,3.3016 c -1.4966,1.8156 -3.122,3.3014 -3.6118,3.3014 -1.6649,0 -3.529,-6.2954 -3.529,-11.9182 0,-4.8591 -0.1806,-5.454 -1.3557,-4.4782 -0.7456,0.6186 -1.152,1.4546 -0.9033,1.8572 0.2504,0.4028 0.8285,5.3752 1.2876,11.0499 2.1052,8.9436 -0.7728,13.0894 -5.1391,20.618 -3.3956,5.8548 -5.6257,10.6301 -5.1668,11.0647 0.4439,0.4204 1.6264,0.9613 2.628,1.2021 1.0016,0.24 1.8693,0.4855 1.9281,0.5438 0.059,0.059 2.579,-3.6844 5.5999,-8.3161 z m 64.8526,1.4313 c 0,-0.685 -1.2767,-4.287 -2.8373,-8.0044 -2.8074,-6.6886 -2.8593,-6.7446 -4.9523,-5.3734 -2.2938,1.503 -2.276,1.6697 0.9683,8.9876 1.11,2.5036 2.3165,5.5038 2.6815,6.6672 0.633,2.0195 0.7414,2.0438 2.4014,0.5415 0.9562,-0.8651 1.7384,-2.1336 1.7384,-2.8185 z m -24.6652,-8.7167 c 1.0945,-4.13 2.3299,-8.5969 2.7455,-9.9257 0.6919,-2.2133 -1.1529,-17.7735 -2.2358,-18.8561 -0.2348,-0.2349 -0.4266,1.4809 -0.4266,3.8123 0,2.3315 -0.8189,6.3945 -1.82,9.0287 -1.0757,2.8306 -1.4481,4.9136 -0.9105,5.093 1.1779,0.393 1.0834,4.2549 -0.3339,13.6741 -1.4381,9.5551 0.082,8.114 2.9813,-2.8263 z m -13.8524,30.6024 c -0.8496,-0.8496 0.178,-2.149 1.6981,-2.149 0.7216,0 1.3121,0.6144 1.3121,1.3655 0,1.3714 -1.9219,1.8716 -3.0102,0.7835 z m 12.2748,-1.8533 c 0.2064,-1.0769 1.1162,-1.6615 2.5836,-1.6615 3.2397,0 2.9594,2.6518 -0.32,3.027 -2.0889,0.24 -2.5222,-0.026 -2.2636,-1.3655 z m -105.7723,-15.6621 c 0,-1.5185 2.714,-3.0443 4.313,-2.4244 1.5026,0.5825 1.4922,0.7051 -0.1626,1.9227 -1.9782,1.4561 -4.1507,1.7186 -4.1507,0.5017 z m 8.194,-8.6632 c 0,-1.604 2.754,-2.715 3.897,-1.5722 0.4733,0.4735 0.5856,1.3064 0.2478,1.8507 -0.8868,1.4349 -4.1461,1.216 -4.1461,-0.2785 z m 173.8522,-0.5988 c -0.727,-0.4601 -2.2197,-0.8426 -3.3168,-0.8503 -3.0642,-0.026 -3.4227,-1.7243 -0.5895,-2.8012 2.9514,-1.1222 6.6812,0.1393 6.6812,2.2587 0,1.8109 -1.1786,2.4025 -2.7749,1.3928 z m -64.1705,-22.7683 c -1.8432,-3.5643 -5.1149,-16.2903 -4.4604,-17.3494 0.2741,-0.4437 0.8279,-0.8063 1.2308,-0.8063 0.8702,0 4.912,8.8899 6.4881,14.2711 1.845,6.2992 -0.5396,9.1422 -3.2585,3.8846 z m -31.3831,-1.3417 c 0,-1.9715 5.8724,-15.0815 7.3574,-16.4255 2.7047,-2.4477 3.8735,-0.1601 2.1028,4.1158 -2.6907,6.4964 -9.4602,15.3049 -9.4602,12.3097 z m -40.6315,-31.9754 c -1.8688,-4.4728 -1.3031,-12.1981 1.2896,-17.6147 3.3117,-6.9181 6.7235,-12.7463 7.4616,-12.7463 1.5823,0 2.7266,2.7176 3.7476,8.8999 1.2483,7.5589 0.129,14.9025 -3.1739,20.8084 -1.5663,2.8018 -2.5754,3.5817 -4.9278,3.8098 -2.6647,0.2586 -3.1008,-0.054 -4.3971,-3.1571 z m 6.0524,-11.9455 c 1.3924,-6.4868 0.6011,-7.9473 -1.5915,-2.938 -2.1929,5.0099 -3.2996,10.5798 -2.3937,12.0457 0.8519,1.3781 2.5841,-2.5811 3.9852,-9.1077 z m 32.9396,-19.0984 c -2.3589,-5.2063 -2.2322,-28.3571 0.1858,-33.7161 3.1695,-7.0288 4.0018,-5.0491 3.4923,8.3063 -0.3618,9.4788 -0.1213,13.6906 1.1007,19.1777 1.7328,7.7881 1.4755,9.6462 -1.3348,9.6462 -1.3089,0 -2.3751,-1.0571 -3.4427,-3.4141 z m 41.5338,-7.4035 c 0,-0.6898 0.678,-1.8163 1.5067,-2.5039 2.5518,-2.1162 3.9561,-6.8293 3.9571,-13.2836 8e-4,-7.0115 -1.7973,-21.1971 -2.6877,-21.1971 -0.3241,0 -1.1407,1.5363 -1.8143,3.4141 -1.8553,5.1717 -9.2738,17.5608 -10.1797,17.0008 -1.6143,-0.9975 -0.7203,-5.9444 2.0652,-11.4257 1.8675,-3.6748 3.2242,-8.1665 3.904,-12.9237 1.5745,-11.02 4.8862,-11.7245 9.2124,-1.9593 3.299,7.4469 5.1647,18.6171 4.816,28.8342 0.3101,5.7838 0.3212,8.4907 -3.7104,12.1832 -3.4663,3.1752 -7.0693,4.1236 -7.0693,1.861 z" transform="translate(89.8938,294.28725) translate(-5094.4625,-2256.5165)" fill="#000000"/>
</svg>