<?xml version="1.0" encoding="utf-8"?>
<!DOCTYPE svg PUBLIC "-//W3C//DTD SVG 1.1//EN" "http://www.w3.org/Graphics/SVG/1.1/DTD/svg11.dtd">
<svg version="1.1" id="Layer_1" xmlns="http://www.w3.org/2000/svg" xmlns:xlink="http://www.w3.org/1999/xlink" x="0px" y="0px"
	 viewBox="0 0 864.7738 1729.8137" enable-background="new 0 0 864.7738 1729.8137" xml:space="preserve">
<g>
	<path fill="#2F2725" d="M796.1317,770.2269c-9.1473,0.1224-16.1129,7.4403-17.1189,17.8405
		c-0.7972,8.2412,2.3006,14.6274,9.5375,19.6638c-5.2708,2.7954-10.7672,2.6216-15.8458,3.0298
		c-18.3803,1.4774-36.0606-0.5163-51.8018-11.6901c-6.4955-4.6107-13.7211-8.2018-22.3723-6.0492
		c-2.606,0.6484-4.9509-0.8307-7.1538-2.3555c-6.0135-4.1624-11.3871-9.0367-16.7-14.9565
		c-3.4432,9.2481-2.5042,19.7978-10.9312,26.7819c-4.3182-3.4637-4.8171-10.0484-10.5623-13.0711
		c-1.0638,4.2596,0.0454,7.8969,0.4444,11.4772c2.3661,21.2328-1.3085,41.1608-13.0101,59.2219
		c-4.6977,7.2507-10.9541,12.8701-19.8247,14.7342c-8.4715,3.7515-4.4179,2.1669-3.301-1.9217
		c2.8885-4.8123,6.4705-9.1998,8.7003-14.4175c4.2535-9.9528,1.0592-14.9721-9.6195-15.0229
		c-0.7052-0.0033-1.4255-0.006-2.1135,0.1242c-3.7461,0.7092-4.1254-1.1038-3.9122-4.3509
		c1.5513-23.6362-6.5815-44.2011-20.3825-62.8919c-10.3202-13.9768-23.0018-25.5104-37.3552-35.1473
		c-8.0881-5.4305-15.0385-11.9637-21.4121-19.2205c-0.4472-0.1474-0.8018-1.493-1.3676-0.1057
		c0.8436,11.3,4.2934,22.063,7.0887,32.9261c9.2407,35.9108,20.4067,71.1883,36.7537,104.599
		c8.7114,17.8049,17.8223,35.9872,33.5628,48.3143c33.813,26.4809,58.0607,60.82,81.9055,95.5592
		c31.1219,45.3411,59.1767,92.5864,85.9628,140.6132c7.697,13.8004,17.8829,25.9363,30.4363,35.86
		c3.1724,2.5078,6.4722,4.9254,10.3135,5.9708c5.1689,1.4066,5.2,4.743,4.124,8.7258c-0.9896,3.6631-3.0012,6.8838-4.8986,10.1272
		c-6.1573,10.5259-12.6002,20.8689-18.3669,31.6415c-9.1366,17.0676-12.9746,35.5398-16.4424,54.3019
		c-3.4774,18.8149-9.9747,36.6122-21.2292,52.3835c-3.1778,4.453-6.766,8.4891-11.554,11.2332
		c-6.4551,3.6997-11.8444,2.885-17.2226-2.4031c-6.2264-6.1222-9.3708-5.8405-14.3053,1.718
		c-5.6542,8.6608-9.2886,18.493-15.3047,26.9413c-1.525,2.1415,0.6226,3.4722,0.4248,5.2223
		c-4.2087,2.3746-7.1583,5.9517-9.5766,10.0354c-3.0232-0.0071-6.0822-0.2396-8.892,1.3113
		c-5.4312,0.8231-10.7639,0.4946-15.9806-1.2717c-1.946-1.9429-3.9964-1.621-6.4167-0.7539
		c-6.0541,2.1689-10.4014,6.2877-13.7534,11.5308c-3.4133,5.3389-6.603,10.8496-8.6197,16.8879
		c-2.595,7.7701-7.2215,12.1635-16.0029,11.8077c-3.7939-0.1538-8.0793-0.2184-11.197,3.019
		c-10.4103,3.2848-21.3419,3.6025-31.9791,5.6002c-1.946,0.3655-3.7205-0.3312-5.3286-1.4365
		c-8.811-2.0961-10.5662-4.0035-9.8717-12.4c0.5047-6.1005-1.0225-11.7156-3.2271-17.1321
		c-3.9816-9.7819-8.4297-19.3728-12.6162-29.0723c-5.1307-11.8871-9.1151-24.1172-11.1833-36.948
		c-4.7451-29.439-15.7079-56.9692-26.5013-84.4951c-13.0286-33.2261-27.0238-66.0432-44.7477-97.125
		c-4.3261-7.5864-9.2317-14.553-15.8258-20.5441c-8.4868-7.7107-11.4783-18.5933-14.2356-29.329
		c-2.0523-7.9905-2.901-16.1548-3.0257-24.4009c-0.0458-3.0219-0.0409-6.082-2.744-9.804
		c0.2415,10.1659-0.6664,19.2126-1.2007,28.2777c-2.8565,48.4614-9.1071,96.421-21.6028,143.4014
		c-7.7535,29.1505-17.9428,57.3833-34.7142,82.7878c-10.523,15.9399-23.5767,29.1794-40.6529,38.2407
		c-28.6083,15.1807-57.102,30.5771-85.6753,45.8237c-8.3046,4.4313-15.6399,9.651-17.9388,19.5461
		c-8.6794,6.7639-7.4053,16.8951-8.8334,26.1122c-3.5223-3.5156-1.7054-7.9124-2.0251-11.9064
		c0.6673-0.7723-1.4183-0.6377-0.4966-0.4365c0.4141,0.0903,0.4459,0.3221,0.0956,0.6956
		c-8.552,9.1145-24.7144,11.8391-33.0688,5.5747c-3.259-3.4827-3.5083-8.0782-4.4539-12.3771
		c-0.7062-3.2108-2.0167-4.8743-5.7075-4.5336c-4.6923,0.4331-9.3859-0.0093-13.9261-1.6154
		c-6.9258-2.45-9.7259-6.1848-9.8478-13.7081c-0.0802-4.951-0.1003-9.9061-0.0007-14.8564
		c0.4466-22.176-0.7124-44.2211-4.677-66.0967c-1.8171-10.0265-1.2054-20.1638-0.4687-30.2805
		c0.8378-11.5032,1.0283-23.0381,1.9489-34.5483c1.8752-23.4445,4.1925-46.8328,6.8562-70.2015
		c2.9012-25.4523,6.2868-50.8311,10.4451-76.098c8.5811-52.1415,18.2152-104.0496,36.8405-153.7902
		c1.4809-3.9548,2.7421-8.1077,4.9316-11.6592c6.2831-10.1916,7.5951-21.6501,8.8273-33.0619
		c1.3373-12.3853,2.0295-24.8426,2.8755-37.2772c0.4366-6.4163,0.3153-6.4404-6.4046-7.9485
		c-7.7791-1.7458-15.463-3.8372-22.9138-6.6786c-6.165-2.3511-12.0701-5.1265-16.8966-9.8995
		c-5.0717-5.0155-8.6973-4.8771-13.7747,0.2394c-3.5051,3.532-5.7221,8.0004-8.2439,12.3368
		c-6.8492-10.695-5.5937-29.3857,2.5846-40.3729c8.4224-11.3151,7.9733-20.2858-2.0787-29.9293
		c-4.0727-3.9072-7.593-8.3576-11.8821-11.9941c-6.557-5.5594-11.4301-4.3885-14.7963,3.5208
		c-5.1932,12.2022-4.355,24.2007,1.7997,35.8752c0.9858,1.8699,2.0864,3.6793,3.4499,6.0707
		c-6.6548-0.2719-11.7079-3.1821-16.3191-7.0135c-9.9084-8.233-14.763-19.4738-17.1603-31.5988
		c-3.9963-20.2121-5.2505-40.5243,0.4706-60.786c1.6576-5.8704,2.3025-12.0281,0.6176-18.1489
		c-2.7859-10.1202-10.1-12.3118-17.8141-5.3575c-7.4164,6.6859-7.8406,15.0489-5.8501,23.9973
		c0.4209,1.8922,2.431,4.2161-0.0595,5.477c-2.2289,1.1284-4.584-0.5548-6.3204-2.1748c-2.9265-2.7302-3.6938-6.3429-3.9787-10.2312
		c-0.6673-9.1068,2.4745-17.6626,3.607-26.5045c0.7553-5.8972,1.2335-11.7115-0.5355-17.4789
		c-1.8072-5.8923-4.7366-7.6298-10.5144-6.3763c-5.684,1.233-7.268-0.3862-5.9632-6.069c0.9098-3.9628,3.0195-7.2885,5.2233-10.6484
		c7.1369-10.8809,9.546-22.9669,7.6925-35.7068c-1.7898-12.302-9.1554-19.7389-22.0694-22.1349
		c6.4369-5.4335,13.0388-10.028,20.1801-13.1644c20.2801-8.9072,35.1013-24.3335,49.5964-40.1472
		c17.0449-18.5956,32.0615-38.7791,45.3477-60.2404c1.4931-2.4117,3.3174-4.6109,2.5411-7.7236
		c2.1977-0.171,2.6898,1.606,3.3107,3.058c11.3879,26.6328,23.4849,52.9215,37.6872,78.1986
		c1.0331,1.8386,1.9736,3.7683,1.904,5.9843c-1.4285,4.3662-5.7281,5.2451-8.996,7.3848c-2.666,1.7456-5.4808,3.4747-2.4996,7.1689
		c2.2367,2.7718,0.1094,4.1673-1.6935,5.7366c-5.7998,5.0485-5.7916,5.0579,0.1373,9.1972
		c-0.3049,2.4022-5.6077,2.1561-3.2749,5.7834c1.7195,2.6737,4.6597,2.7434,7.5556,2.3507
		c8.2995-1.126,16.6741-0.9178,25.0187-1.4044c3.854,11.4365,12.5844,20.8298,13.9653,33.3157
		c0.2055,1.8584,0.5443,3.6772-0.2389,5.4676c-2.1938,2.3779-5.6808,3.9366-1.6871,8.2533c3.0883,3.3381-2.7205,3.7072-3.554,6.5073
		c1.7193,2.3239,6.1071,1.8962,7.1113,5.4917c1.5364,14.0011-1.2513,27.6909-3.2395,41.3854
		c-1.8742,12.9088-0.1166,15.5177,12.9737,16.2348c3.0778,0.1685,6.1147,0.1374,9.1345-0.5518
		c2.8397-0.6481,5.7658-0.792,8.1585,1.0457c3.2112,2.4661,6.2531,2.5882,9.7989,0.7364c2.2211-1.16,4.9571-0.9641,6.4147,1.237
		c2.865,4.3264,7.2532,4.977,11.6971,5.4656c36.3177,3.9923,72.6372,5.8705,109.2391,3.5703
		c34.2028-2.1493,67.9065-6.9868,101.3764-14.0035c5.317-1.1146,10.548-2.5251,15.6999-4.1873
		c7.2372-2.335,8.5446-4.8027,6.1727-12.1981c-4.0103-12.5034-5.3784-25.297-4.8977-38.3517
		c0.1135-3.0827,0.4845-6.1066,1.7296-8.9558c2.4218-3.4215,6.5347-6.5916,1.4359-11.0802
		c-0.6072-0.5345-0.5479,0.0787-0.2012-0.5701c4.0682-7.6144-2.0013-8.9274-6.7357-11.1386
		c-0.2636-0.123-0.1013-0.8168,0.1104-1.2909c2.6421-2.6653,3.7171-5.8445,3.6228-9.5931
		c-0.226-8.9798,2.6184-17.1031,7.0377-24.8164c4.4003-7.6801,3.0685-9.8239-5.9142-10.0552
		c-15.3222-0.3945-30.5276,1.4042-45.7832,2.3228c-17.6061,1.0602-35.1999,2.4479-52.8146,3.1694
		c-10.8182,0.4431-21.5558,2.0377-32.4029,1.8746c-3.3547-0.0504-6.8926,0.6208-7.126-4.3506
		c0.826-3.6859,3.6513-5.9654,6.1273-8.4479c9.9916-10.0182,18.9812-20.9501,28.5977-31.2946
		c10.5794-11.3802,12.0462-24.5015,9.7652-38.8384c-1.4869-9.3463-4.4943-18.3155-6.9252-27.4177
		c-4.169-15.6107-4.6221-31.2063-0.5569-46.8152c4.8197-18.506,8.7445-37.1349,10.2161-56.2563
		c0.2521-3.2758-0.3935-8.3874,3.3149-9.3273c3.8461-0.9748,5.3252,3.9209,7.1435,6.7391
		c12.8067,19.8491,23.8808,40.4474,31.6854,62.9719c9.4987,27.4136,22.5003,53.3889,36.0594,79.0668
		c14.882,28.1835,31.1643,55.4915,49.0724,81.836c19.6544,28.9133,41.4704,56.1041,66.175,80.8567
		c8.134,8.1498,16.7529,15.8929,25.8786,22.9885c1.7492,1.36,3.7524,3.7307,6.0552,1.1719c1.8962-2.107,0.6819-4.4406-0.7332-6.4537
		c-1.4971-2.1298-3.8181-3.5588-5.1602-5.7988c-1.6764-2.7979-4.0618-5.795-1.4117-9.0258
		c2.5771-3.1417,5.9609-1.9709,9.0872-0.5901c3.928,1.7349,7.4649,4.2056,10.4904,7.1345
		c18.1836,17.6036,34.7825,36.5013,46.9882,58.8926c1.7864,3.2773,2.7222,6.9047,4.7392,11.3684
		c1.6231-5.6351,3.0531-10.1548,2.569-15.2207c-0.6345-6.6399,2.1785-10.2203,8.7118-11.2443
		c5.217-0.8177,10.382-0.6519,14.8409,2.8431c4.3268,3.3913,5.3908,0.8632,5.0703-3.0452
		c-0.7167-8.736-3.0817-17.1539-5.5433-25.5231c-1.931-6.5652-4.4628-12.925-7.1121-19.2311
		c-1.7449-4.1537-3.0161-8.4514-3.7612-12.8747c-2.0565-12.2076,0.4643-17.0194,11.4579-22.8234
		c2.1629-1.1418,5.6855-1.4847,5.5741-4.6346c-0.1004-2.8362-3.2673-3.8054-5.4606-5.0306
		c-11.7458-6.5611-24.1893-11.7-36.3574-17.3801c-22.8082-10.6467-43.5772-24.0416-62.3816-40.9261
		c-24.2396-21.7647-47.4273-44.4813-67.9318-69.7866c-23.4399-28.928-44.0313-59.5296-53.3104-96.367
		c-2.6083-10.3547-2.6162-21.0272-4.3868-31.4715c-2.6926-15.8824-6.2586-31.4668-15.8268-44.9396
		c-2.466-3.4724-5.1875-6.7288-8.2146-9.7071c-3.119-3.0687-3.6395-6.0785,0.0997-8.8755
		c8.5714-6.4116,12.6964-14.9452,15.0791-25.4114c2.4904-10.9399,11.4363-16.5359,22.1819-18.9691
		c-0.5118,2.3678,0.9476,3.9533,2.167,5.6862c15.528,22.0683,27.0883,46.048,34.5182,71.9968
		c2.3363,8.1595,8.4304,13.4052,14.3465,18.7869c16.2363,14.7696,34.3528,27.0384,52.5256,39.21
		c15.9156,10.6599,33.0296,18.6793,51.796,23.0183c6.4232,1.4851,12.4594,4.0734,17.9965,7.7539
		c9.9177,6.5925,15.8289,16.5239,15.7488,26.7277c-3.4986-0.3534-6.5916-3.573-10.9592-1.3042
		c6.0342,7.2703,14.3215,9.6317,22.6852,11.7758c7.1108,1.823,14.4659,1.6269,21.7133,2.2117
		c3.4243,0.2763,6.4057,1.202,9.2352,2.9602c20.614,12.8087,31.2355,31.8141,34.3784,55.4547
		c0.5563,5.9888-2.6546,2.242-4.5952,1.7781c-9.7703-4.5184-14.9326-1.1934-15.2783,9.8407
		c-0.2222,7.0891-2.4749,10.6779-8.8803,12.6954c-5.371,1.6917-9.5709,4.216-9.7448,10.3964
		c-0.184,6.5452,3.239,11.228,8.9175,13.9486c8.5482,4.0956,17.752,5.9921,27.1606,6.7397
		c9.2681,0.7363,13.6887,4.9077,13.7318,14.2867c0.0635,13.795-5.1409,25.016-17.2617,32.4406l0.1143,0.156
		c-0.6638-2.9487,1.406-5.3717,1.5471-8.2155c0.1703-3.436,1.673-7.2484-3.1137-8.7265c-3.6765-1.1354-8.028,1.1953-9.8115,5.1111
		c-1.9162,4.2072-1.6646,8.7424-1.4883,13.178c0.4371,10.9923-1.715,21.5161-5.7607,31.6272
		c-1.6937,4.2332-2.6982,8.4182-2.7985,12.96c-0.2574,11.6658,3.0094,22.3213,9.5574,31.8087
		c5.999,8.6917,12.5997,16.968,18.9354,25.4273c0.413,0.368,0.5493,0.7345,0.4091,1.0996
		C796.41,770.0447,796.2709,770.2269,796.1317,770.2269z"/>
	<path fill="#221715" d="M528.7581,298.8503c-3.5435,2.1862-7.0869,4.3727-10.6307,6.5585
		c-6.3696,3.9288-10.081,9.2693-10.8652,17.0433c-0.925,9.1703-6.5123,15.9076-13.6221,21.3491
		c-1.4946,1.1439-3.2079,1.9323-4.1043,4.0553c3.7448,3.6841,7.6612,7.3406,10.806,11.7163
		c10.4305,14.5126,15.2048,31.1247,16.8445,48.524c2.2658,24.0435,7.5184,47.1535,19.0482,68.4754
		c11.6159,21.4809,25.3965,41.4597,41.1568,60.2367c11.1865,13.3276,22.6401,26.4682,35.0681,38.4608
		c18.3493,17.7064,36.4453,35.9509,57.9973,49.9896c16.7615,10.9181,34.9268,19.2123,53.1339,27.3792
		c7.7229,3.4641,15.4504,6.9557,22.4473,11.769c4.1786,2.8745,4.0054,4.4883-0.3575,6.9444
		c-1.8442,1.0382-3.7799,1.9142-5.6744,2.863c-10.325,5.1714-12.5313,10.1788-9.9199,21.7337
		c2.2884,10.1249,7.2277,19.2848,10.3231,29.1176c2.5333,8.0475,4.2044,16.2897,5.9984,24.5015
		c0.5415,2.4788,0.3638,5.1918,0.0944,7.7531c-0.4288,4.077-2.6866,5.1147-5.3501,2.118
		c-4.3201-4.8605-9.6348-5.4672-15.4289-4.9529c-6.4562,0.5734-8.3858,3.5583-7.6687,10.0681
		c0.7632,6.9291-1.739,13.1709-5.4549,19.2951c-2.0245-11.2426-8.0675-20.3572-14.1821-29.3202
		c-10.4695-15.3464-22.6754-29.2914-35.91-42.31c-3.4999-3.4427-7.4675-6.4221-11.9278-8.6146
		c-2.5539-1.2554-5.462-2.9122-7.6882-0.0558c-2.0265,2.6,0.9722,4.7028,1.8306,6.9693c1.2007,3.1707,4.6659,4.2723,6.6738,6.9962
		c3.2252,4.3749,0.2975,7.0698-1.2952,10.1857c-0.9231,1.8061-2.355,0.5814-3.4909-0.2905
		c-3.8981-2.9918-8.007-5.7422-11.683-8.9843c-15.8663-13.9931-30.3707-29.2626-44.262-45.2653
		c-19.7324-22.7316-37.1563-47.078-53.4203-72.2813c-12.2106-18.9218-23.5334-38.391-34.0849-58.3298
		c-8.3455-15.7701-16.4167-31.6479-23.7659-47.8935c-6.2819-13.8862-12.5936-27.7605-17.2879-42.3085
		c-6.019-18.6531-21.9823-47.9935-34.5672-63.7733c-2.3745,8.0013-2.7002,16.1122-3.3557,23.9758
		c-0.9805,11.7602-3.5103,23.2024-6.7216,34.3146c-5.7086,19.7538-5.8686,39.0298,0.0634,58.6172
		c3.799,12.5442,7.3176,25.1472,6.5113,38.5783c-0.3978,6.6267-2.2683,12.4437-6.2113,17.5921
		c-11.1536,14.5632-23.6048,27.9779-36.5826,40.9184c-0.9849,0.9821-1.7532,2.1813-2.6222,3.2795
		c-4.2854,6.2292-9.6458,11.022-16.7291,14.0923c-12.3635,5.3591-20.4038,0.478-20.5596-12.838
		c-0.0436-3.7306,0.363-7.5041-0.8852-11.1401c-1.513-6.4388-1.754-13.0774-3.0107-19.5536
		c-2.3873-12.3025-5.8965-24.0745-12.1604-35.213c-9.4016-16.718-13.3818-34.4139-11.4463-54.2775
		c3.0743-31.5504-0.2721-63.0663-7.1943-94.0562c-2.6713-11.959-6.0127-23.755-7.2158-36.018
		c-0.5791-5.9023-1.2357-11.825,0.3025-17.5715c1.4219-5.3121-0.2968-9.0443-4.1183-12.5288
		c-10.9893-10.0204-20.4423-21.5257-30.7663-32.1928c-1.9193-1.983-4.3373-3.8227-3.7-7.1744
		c-3.0449-6.0731-4.0809-12.0271-0.6045-18.5068c4.2245-7.8743,10.984-9.2379,18.8701-8.5649
		c11.9876,19.3746,33.2458,18.9604,52.9853,25.4888c-2.152-3.9128-4.648-4.4317-6.9604-5.1423
		c-4.2767-1.3142-8.5533-2.6525-12.9048-3.6879c-12.3692-2.9433-23.1021-9.121-33.2104-16.5714
		c0.0457-0.9361,0.134-1.8723,0.1308-2.8081c-0.041-12.1196,4.7284-16.1254,16.6772-13.7876
		c2.8663,0.5608,5.5899,1.9162,9.1323,1.3229c-5.0438-8.1992-10.693-15.6434-14.9111-23.954
		c-4.469-8.8049-3.3034-15.1841,4.5157-20.8025c4.9207-3.5357,10.2942-6.461,15.5708-9.4741
		c3.1713-1.8109,6.6452-2.1308,10.174-0.9207c0.7737,0.5859,1.6043,0.4317,2.4474,0.1811c0.6056-0.0121,1.1902,0.0832,1.7717,0.2552
		c0.5814,0.2248,1.1198,0.5193,1.643,0.8531c2.3903,1.583,4.6772,3.3042,6.9961,4.9882c4.8034,3.0746,8.7764,7.1993,12.7823,11.1074
		c5.5659,5.4301,11.8709,7.7031,19.4037,8.5271c14.4507,1.5807,28.9756,1.8198,44.1029,3.574
		c-9.3418-7.9215-14.7325-17.9888-21.7892-26.7004c-10.231-12.6303-20.4401-25.2899-30.3726-38.157
		c-3.3089-4.2864-6.6464-5.2468-11.547-3.2648c-9.2118,3.7257-17.9568,8.2402-26.2602,13.7111
		c-5.9072,3.8921-6.3491,3.5519-7.4482-3.5633c-1.1235-18.9433-0.8727-37.7868,4.6494-56.1601
		c0.5856-1.9484,0.1099-3.6566,0.1971-5.4705c0.3143-6.5413,1.5942-12.5994,9.0719-14.7938
		c4.243-2.6538,6.5934,0.7203,8.9636,3.0856c12.1539,12.1286,22.9327,25.4791,33.7455,38.7743
		c19.8628,24.423,39.3928,49.1139,58.7082,73.9734c0.8244,1.061,1.3134,2.549,3.1425,2.7029
		c3.8595-3.8934,4.1692-9.7355,7.3338-14.0544c16.4172-0.2659,21.8636,10.6259,23.8958,25.5556
		c1.7105,12.5665,0.3211,15.713-8.7748,25.6824c6.6444,3.2177,13.8467,3.8484,20.6369,5.8032
		c2.2113,0.6366,4.023-1.0056,5.8709-1.8958c10.5143-5.0651,21.4914-7.7991,33.223-6.802c1.4553,0.1237,3.4323-0.6546,4.0951,1.6263
		l0.0693-0.1288c-9.1013,2.8691-16.989,12.3913-17.5365,21.8193c-0.3275,5.639,4.2045,4.8567,7.787,5.0346
		c6.6679-0.3244,12.3366,2.1775,17.4731,6.1809c9.3234,7.2664,10.6799,16.53,3.884,26.5116L528.7581,298.8503z"/>
	<path fill="#2F2725" d="M261.1361,287.3776c12.3519,13.5348,24.4073,27.3638,37.8443,39.849
		c3.5195,3.2701,4.7264,6.3781,3.1179,10.9373c-3.4418,9.7549-0.8694,19.6524,0.7712,29.1611
		c2.81,16.2859,8.0215,32.1343,10.2865,48.5552c1.4664,10.6317,2.6045,21.3505,3.0785,32.0662
		c0.5246,11.8604-0.1039,23.7684,0.2425,35.6419c0.1333,4.5694-1.4443,8.7485-1.6091,13.2217
		c-0.611,16.5824,4.9702,31.535,13.0838,45.3361c5.7511,9.7824,8.4784,20.2612,10.8729,30.9354
		c1.676,7.471,2.0551,15.233,3.0134,22.8651c0.1066,0.2085,0.2974,0.413,0.3076,0.6262c0.8926,18.5803,1.906,16.3773-14.1191,17.485
		c-19.1359,1.3228-38.2802,2.2834-57.4174,3.2106c-2.8809-0.3427-4.5888-2.2559-5.7882-4.6527
		c-2.6419-5.2797-5.6646-10.3423-8.7157-15.3832c-2.5041-4.1371-2.0917-7.7722,1.8405-10.5062
		c6.8169-4.7396,9.4325-12.272,12.843-19.1582c2.8006-5.6547-0.3705-10.8503-7.2395-13.407
		c-8.3422-2.7682-16.0282-0.3688-23.5294,3.0854c-2.2666,1.0437-4.0361,3.3043-6.9511,2.6232
		c-2.8246-1.2893-3.8091-4.0424-5.0825-6.5211c-15.4619-30.0975-29.6151-60.839-44.7539-91.0967
		c-1.4176-2.8334-3.5469-5.64-2.7395-9.2143c3.9212,0.5046,3.6863-2.9851,4.5697-5.0625
		c9.4482-22.2203,18.6599-44.5414,28.1578-66.7402c13.577-31.7326,27.7559-63.1754,46.6181-92.2427
		C260.2126,288.4159,260.701,287.9141,261.1361,287.3776z"/>
	<path fill="#221715" d="M183.4397,1459.231c11.3159,2.3688,16.3637,3.8914,34.7303-7.593
		c1.313,4.5703-0.1672,9.2095,0.7645,13.6656c0.6429,12.2542-0.6306,24.4789-2.0079,36.5548
		c-3.3497,29.3689,0.2423,57.6401,10.5507,85.2155c2.6257,7.0238,5.6023,13.9302,7.1381,21.3396
		c2.7171,13.1085-4.3172,26.5413-17.1065,30.0261c-16.2262,4.4213-31.9574,9.7037-46.0817,19.0338
		c-2.3677,1.5641-4.9512,1.3007-7.5053,1.3019c-14.8439,0.0073-29.6882,0.0181-44.5315-0.0878
		c-14.1608-0.1011-28.1011,1.9714-42.1055,3.6895c-10.4749,1.2852-21.0984,2.0188-31.5401-0.7191
		c-9.5019-2.4915-12.4516-6.0801-12.6019-15.0438c-0.1485-8.8534,4.0304-15.9301,12.4407-17.2822
		c25.2251-4.0554,43.8504-19.5697,62.4568-34.9886c19.8014-16.4092,37.5993-34.9084,53.9838-54.7567
		c4.5116-5.4652,8.2645-11.4351,12.2138-17.2764c4.461-6.5981,3.8767-14.4275,4.6107-21.7902
		C180.2226,1486.7366,181.4147,1472.9402,183.4397,1459.231z"/>
	<path fill="#221715" d="M573.5312,1442.3644c11.4632-1.7072,22.9334-3.3701,34.3804-5.1799
		c1.3575-0.2147,2.2283-0.1367,2.9273,1.0161c0.4921,30.8599,4.7961,60.8237,19.7496,88.5059
		c10.3086,19.0837,24.1927,35.2307,39.4808,50.3905c16.2261,16.0905,32.2233,32.4126,48.2252,48.7271
		c6.0798,6.1985,5.5562,8.9286-1.9532,13.485c-7.9194,4.8053-16.6826,7.2734-25.5278,9.6945
		c-22.4794,6.1526-45.3627,8.6594-68.5264,6.7268c-8.2881-0.6915-16.7154-3.2837-20.2793-12.6372
		c-0.4719-1.2385-1.1229-3.187-2.8071-2.4944c-5.0465,2.0759-7.9655-1.64-11.2209-3.9576
		c-6.1218-4.3584-12.1208-8.8466-18.5361-12.8173c-7.7246-4.7811-12.4554-11.9701-14.1755-20.9869
		c-0.9572-5.0182,0.0632-9.7611,4.351-12.5962c11.9957-7.9313,15.8521-20.5104,19.7714-33.1252
		c5.081-16.3539,3.951-33.0411,2.3969-49.7103C579.7578,1485.6359,576.4641,1464.0217,573.5312,1442.3644z"/>
	<path fill="#221715" d="M691.3624,1395.5581c1.1048-6.0911,5.0758-10.0656,9.9153-9.9241
		c11.4866,18.7826,21.7245,38.2738,32.5493,57.4315c17.3006,30.6189,34.807,61.1299,51.5562,92.0496
		c12.5205,23.1134,26.4948,45.3583,39.2964,68.2877c3.6304,6.5024,7.3034,13.1884,6.929,21.1224
		c-0.1016,2.1521-0.1855,4.1199-2.0733,5.6669c-5.6227,4.6073-10.9911,9.5649-17.9893,12.1276
		c-6.631,2.4288-10.4997,1.4199-14.6815-4.2582c-13.3845-18.1737-25.3562-37.2616-36.674-56.7786
		c-33.5722-57.8939-61.7161-118.5392-90.7106-178.7538c-0.3926-0.8154-0.5291-1.754-0.7852-2.6351
		c-0.7711-0.8301-0.4629-2.1323-1.2861-2.9395c-0.1934-0.4152-0.3868-0.8303-0.5802-1.2456
		c5.7916-1.9191,11.6212,0.7644,17.4211-0.1438c5.1466,0.0348,6.3827,4.6707,9.0165,7.6624
		c0.2906,0.6432,0.7541,1.2482,0.8864,1.916c2.3666,11.9415,7.1456,22.6727,15.6861,31.5355
		c5.2753,7.3607,5.5671,16.3536,7.8735,24.6606c1.4675,5.2853,3.6376,9.595,9.3779,12.2866
		c-0.5621-9.3251-0.2737-18.2224-8.1313-25.0479c-3.8546-3.3484-6.4984-8.0037-9.3743-12.3088
		c-2.4835-3.5795-3.8928-7.6881-4.2885-11.8712c-0.8843-9.3472-6.1626-15.9346-12.6111-21.9652
		C691.5154,1400.2792,688.9576,1398.3954,691.3624,1395.5581z"/>
	<path fill="#221715" d="M180.4931,453.0375c7.0097,13.9845,14.4125,27.7888,20.9288,41.9995
		c7.9883,17.4206,16.7679,34.4364,25.2111,51.6244c2.0647,4.2031,4.1915,8.3757,6.2897,12.5623
		c0.472,0.4958,0.944,0.9916,1.4251,1.4849c0.6597,0.8668,1.039,1.8486,1.2315,2.9162c0.2766,1.9335,0.1115,3.9235-0.9856,5.461
		c-6.6972,9.3854-14.683,17.2386-26.4218,19.779c-3.2908,0.7122-7.1884,1.3195-9.2483-2.8793
		c-15.7925-28.4074-29.6459-57.7505-42.3053-87.6698c-10.8196-23.2868-20.3902-47.1048-30.0029-70.9002
		c-11.6073-28.733-22.9978-57.5536-34.4969-86.3304c-1.3988-3.5005-2.6752-7.0115-2.3837-10.8748
		c-0.8951-2.8252-1.0424-5.2244,3.006-5.158c8.8046,0.1443,16.1441-4.1613,23.7315-7.7493
		c1.8797-0.8889,3.8434-3.4886,5.8629-0.1277c9.0362,30.8616,23.2143,59.6225,36.3662,88.7958
		C165.8065,421.7316,173.2192,437.3533,180.4931,453.0375z"/>
	<path fill="#221715" d="M336.0207,76.27c5.1174-5.0719,11.8878-6.5365,18.4987-7.7969
		c13.0285-2.4838,26.3279-2.6447,39.4396-1.5079c9.501,0.8238,17.5143,6.3934,24.8979,12.3468
		c11.3962,9.1888,19.6112,20.8989,25.8299,33.9738c3.7328,7.8482,3.9242,16.4969,3.1387,24.9628
		c-1.4957,16.1199-4.4531,31.987-9.9381,47.2949c-1.6967,2.7991-2.989,1.6368-3.813-0.5473
		c-6.9609-18.4491-20.7672-29.7166-38.7122-36.276c-5.3795-1.9664-9.3187-4.917-12.6694-9.4516
		c-14.1266-19.1178-29.3352-37.4042-43.6321-56.3937C337.6041,80.9404,334.927,79.4312,336.0207,76.27z"/>
	<path fill="#373131" d="M312.331,161.4807c2.0226,1.0253,0.4011,3.6389,2.1984,4.9281
		c10.6713-7.2778,21.7888-13.6961,34.1428-17.9004c3.821-1.3004,5.9986-0.7492,8.3998,2.3309
		c13.5251,17.3492,27.1969,34.584,40.8224,51.8549c0.4368,0.5536,0.9858,1.03,1.36,1.62
		c3.9733,6.2656,7.685,12.7729,15.7802,15.0987c-0.2219,0.4683-0.4438,0.9366-0.6657,1.4049c-4.5614,0-9.278,0.7519-13.653-0.1512
		c-10.1872-2.1028-20.5728-0.5386-30.7728-2.4229c-4.7653-0.8803-9.6009-2.2417-14.6189-1.695
		c-1.7736,0.1933-2.8736-1.3931-4.0947-2.4905c-6.4378-5.7858-12.8911-11.5543-19.339-17.3288
		c-1.1044-3.4938-4.4007-4.1671-7.144-5.5521l0.1419,0.1219c-1.1317-0.7492-2.0113-1.7718-2.9553-2.7247
		c-0.7711-0.8867-1.4705-1.8501-2.3244-2.6482C312.4027,179.1915,308.6125,171.4594,312.331,161.4807z"/>
	<path fill="#373131" d="M336.0207,76.27c16.6982,21.9856,34.412,43.1854,50.6789,65.5067c1.6522,2.2672,3.9007,3.5,6.8711,4.3765
		c17.6852,5.2186,30.4843,16.8683,40.5451,31.9328c1.4748,2.2083,0.8512,4.5262,1.1732,6.8036
		c0.2902,2.0523,1.6162,0.8673,2.5983,0.6538c0.0852,1.3315,0.1703,2.663,0.2555,3.9946
		c0.6325,7.1146-5.1128,11.8248-6.4464,19.3791c-8.6381-11.0275-16.4707-21.0947-24.3773-31.1035
		c-10.4339-13.2083-20.8144-26.4612-31.4232-39.5282c-11.0556-13.6172-22.2774-27.1019-33.597-40.5006
		c-3.3313-3.9432-7.2843-7.3563-10.8668-11.0944c-1.4857-1.5501-3.2845-1.637-5.1828-1.6344
		c1.1692-1.9668,2.2229-4.0151,3.5383-5.8786C331.2646,77.0853,332.984,75.1728,336.0207,76.27z"/>
	<path fill="#3A3534" d="M528.7667,298.9254c0.1502-0.9138,0.0854-1.9359,0.4827-2.7255
		c6.6672-13.2519-2.8843-22.5323-13.4072-27.039c-2.7488-1.1773-6.0455-0.7406-8.4326-2.928
		c12.6735-3.6714,23.7543,0.7492,27.3919,10.9278C537.6329,285.0833,535.0802,294.2896,528.7667,298.9254z"/>
	<path fill="#251917" d="M90.126,321.3812c4.4061-10.1769,12.2072-13.5628,25.2469-10.9576
		c0.5503,0.2588,1.0181,0.6234,1.4035,1.0938l0.0099,0.0127c0.6805,2.5033-0.8217,4.1498-2.5282,5.3735
		c-5.875,4.2131-12.7086,6.0253-19.6986,7.2297C92.553,324.479,90.9125,323.4161,90.126,321.3812z"/>
	<path fill="#444140" d="M90.126,321.3812c1.0413,0.4658,2.2677,1.5497,3.0955,1.3019c8.4068-2.5165,18.0058-2.6195,23.5648-11.1531
		c2.6396,1.1053,5.1669,2.321,5.5491,5.6453c-0.813-0.3015-1.5507-0.9848-2.5176-0.3354
		c-8.498,5.7066-17.335,10.4261-28.0546,9.8427c-2.7997-0.1523-1.1023,2.4887-2.0281,3.5276
		C87.937,327.1819,89.4405,324.2997,90.126,321.3812z"/>
	<path fill="#CBCAC8" d="M321.9331,188.5747c1.0484,0.8396,2.8832,0.8261,2.9553,2.7247c-0.8448-0.0882-1.6896-0.1765-2.5344-0.2647
		c-0.9019-0.3556-1.0039-0.8696-0.3054-1.5422C321.8573,189.2058,321.8188,188.8998,321.9331,188.5747z"/>
	<path fill="#7D7775" d="M530.0293,721.8997c-0.6355-0.2985-1.108-0.8286-0.2243-1.1761c0.9327-0.3668,1.5152,0.2805,1.5919,1.2819
		C530.9459,721.9069,530.4901,721.8717,530.0293,721.8997z"/>
	<path fill="#2F2725" d="M667.4087,1396.9546c1.22,0.6335,1.4155,1.7155,1.2861,2.9395
		C667.5816,1399.2137,667.2579,1398.188,667.4087,1396.9546z"/>
	<path fill="#373131" d="M322.0486,189.4925c0.1018,0.5141,0.2036,1.0281,0.3054,1.5422c-0.8149,0.0241-1.3703-0.3786-1.7528-1.0657
		C321.0836,189.8102,321.5661,189.6513,322.0486,189.4925z"/>
	<path fill="#291F1D" d="M517.312,670.9692c-2.9968,16.9456-1.486,33.5026,4.1171,49.7518
		c2.5069,7.2701,1.0184,10.0689-6.48,12.5447c-14.222,4.6957-28.9963,7.0244-43.6449,9.7982
		c-18.3301,3.4709-36.8651,5.4205-55.4303,7.3843c-26.2373,2.7753-52.5123,3.3699-78.7394,2.3055
		c-19.5314-0.7928-39.1564-2.0983-58.5366-5.3439c-1.9959-0.3343-3.499-0.7726-4.4923-2.7374
		c-2.8705-5.6774-3.2167-5.6998-8.0178-1.5096c-0.8746,0.7634-1.7351,1.5429-2.5598,2.2774
		c-2.4433-1.0882-3.7914-3.1043-5.4543-4.7271c-1.7031-1.662-3.8319-2.5576-5.764-1.48c-5.6268,3.1384-11.4565,0.987-17.1339,0.9386
		c-7.6696-0.0651-11.2405-5.6686-9.8766-13.3428c1.5903-8.9482,2.6021-17.9857,3.5371-27.0449
		c0.6999-6.7817,1.1478-13.5153,1.205-20.3057c5.0998-2.5559,10.6286-1.6531,15.9023-1.4774
		c22.8244,0.7608,45.6105,2.4045,68.4794,2.1791c14.8238-0.1462,29.5977,1.9765,44.4668,1.3602
		c43.4878-1.8022,87.1578-1.1786,130.0439-10.5692c7.5895-1.6619,15.519-0.554,23.2266-1.7621
		C514.0258,668.9167,515.9257,669.4153,517.312,670.9692z"/>
	<path fill="#291F1D" d="M268.2424,615.7631c16.9224-1.7094,33.929-1.963,50.8819-3.0403
		c6.248-0.3971,12.4917-1.3226,18.7851-1.1829c3.1729,0.0704,4.0162-1.5322,3.9405-4.3457
		c-0.1008-3.7466-0.0165-7.4982-0.0117-11.2476c2.8644,4.0472,1.6153,8.717,1.2354,12.9088
		c-0.9303,10.2672,7.3387,13.6509,15.4948,10.2171c6.101-2.5685,13.7545-4.0919,16.2397-12.1022
		c0.4657-1.5013,2.4358-1.0341,3.8114-1.1211c-1.2348,2.5704-0.9104,4.0657,2.4252,3.7722
		c13.0555-1.1493,26.1889-1.5102,39.2106-2.6271c17.709-1.5187,35.4715-2.1542,53.1822-3.6181
		c15.3901-1.2721,30.9093-2.7604,46.4512-1.7801c5.9248,0.3738,8.7183,4.7562,5.246,9.4715
		c-7.174,9.7421-10.3781,20.5117-9.0799,32.3524c0.5778,5.2702-3.8386,4.2723-5.8298,6.2632
		c-4.7392,4.5106-11.0472,5.1447-16.9322,6.1734c-17.8372,3.1183-35.8369,4.8193-53.9301,6.0566
		c-24.8549,1.6996-49.801,1.3477-74.5775,3.038c-38.8636,2.6514-77.5602-1.4497-116.3402-0.5748
		c-6.5312,0.1474-13.6673,0.3571-19.8133-3.3766c-1.4207-9.087-2.3795-18.239-9.0709-25.5807
		c-3.0848-3.3846-3.9287-7.9549-3.6856-12.5862c0.8079-4.2805,4.6129-5.4949,7.7673-6.0276
		c13.0003-2.1952,26.2378-1.8393,39.3542-2.9131C264.9166,613.7352,266.6304,614.7487,268.2424,615.7631z"/>
	<path fill="#444141" d="M228.6317,661c22.5269,1.9515,45.1592,0.5082,67.6605,1.7811c16.8776,0.9548,33.7456,1.5097,50.5483,0.824
		c19.0328-0.7767,38.0832-0.4075,57.0719-1.3901c15.4236-0.798,30.9114-1.2885,46.2671-2.8768
		c20.1674-2.0859,40.4151-4.0622,60.0454-9.655c1.8513,0.0238,3.7253-0.1285,5.5499,0.1048
		c5.3756,0.687,6.8687,4.1447,3.2667,8.1893c-1.5402,1.7294-1.3509,2.4807,0.0291,3.8704c5.2344,5.2715,5.2087,5.297-1.7586,9.1214
		c-16.8155,1.0206-33.5339,2.7007-50.1133,5.9019c-9.3811,1.8113-18.9369,3.5923-28.4348,3.7095
		c-12.7104,0.1569-25.2876,2.4506-38.0152,1.7378c-9.8782-0.5531-19.6931,1.1274-29.5255,1.2415
		c-39.984,0.464-79.9195-1.8132-119.8709-2.9859c-7.053-0.207-14.2957,0.7002-21.3111-1.0956
		c-0.6927-0.1246-1.5766-0.0206-2.0457-0.4127c-2.2202-1.8558-7.1799,0.3658-7.2785-3.9695
		c-0.0837-3.6825,4.8498-2.017,6.759-5.1489c-1.247-1.5918-5.5845-1.8716-4.403-5.7988
		C223.9576,661.2089,226.1937,661.0108,228.6317,661z"/>
	<path fill="#221714" d="M227.1751,756.3644c1.3002,0.8719,1.3986,1.7832,1.4122,2.7284
		c0.2964,20.5587,2.6459,41.0009,3.1463,61.5768c0.4495,18.4807,1.7219,36.9915,2.8739,55.4578
		c0.6886,11.0389,0.2985,22.0775,1.1775,33.0551c1.9503,24.3579,1.9639,48.7782,3.0679,73.1489
		c0.8877,19.5963,2.1151,39.264,4.1203,58.7967c2.0005,19.4863,3.988,38.9889,6.6823,58.4198
		c3.621,26.1139,7.8654,52.09,12.5154,78.0436c5.9377,33.1405,13.3379,65.9257,21.8866,98.4324
		c6.8406,26.0116,14.0613,51.9692,23.576,77.2012c0.671,1.7794,2.4254,3.6708,0.9618,6.2419
		c-6.382-10.3961-10.6096-21.5536-14.8878-32.6738c-12.8925-33.5122-21.2198-68.2655-28.5442-103.3408
		c-3.3865-16.2174-6.3998-32.5243-9.1404-48.8176c-2.4693-14.6802-4.15-29.584-6.399-44.3302
		c-2.6402-17.3115-3.8717-34.7717-6.4618-52.0833c-0.8881-5.936-1.435-12.0647-1.9013-18.134
		c-1.0548-13.7317-2.6684-27.4193-3.9451-41.135c-0.5853-6.2881-1.1301-12.6749-1.2679-18.8883
		c-0.2452-11.0495-1.1602-22.0783-2.0748-33.0086c-1.4986-17.9081-1.205-35.9443-3.8722-53.7559
		c-0.1039-0.6939-0.083-1.4142-0.0529-2.1192c0.9245-21.6559-1.0136-43.267-1.8241-64.8589
		c-0.6885-18.3401,0.0851-36.7134-1.3086-54.9647c-0.7533-9.866-0.899-19.6804-1.0748-29.526
		C225.8094,760.0901,225.067,758.0596,227.1751,756.3644z"/>
	<path fill="#221714" d="M263.9884,1017.688c1.2241,10.2206,3.9177,20.1554,6.0505,30.1896
		c6.4131,30.1715,14.4152,59.9614,22.4664,89.7244c4.703,17.3855,10.1216,34.5796,15.3328,51.8252
		c7.5914,25.1226,15.3043,50.215,24.1018,74.9423c6.4408,18.1036,12.1155,36.4865,19.4722,54.2632
		c0.2379,0.575,0.0302,1.3346,0.0302,3.0676c-6.679-10.2446-12.3105-20.0165-17.0222-30.2902
		c-10.7617-23.4659-20.2101-47.4528-27.963-72.0873c-9.4786-30.1179-17.27-60.6787-24.1221-91.496
		c-5.4703-24.6028-10.2817-49.3164-14.2929-74.2019c-1.7798-11.0417-4.0204-22.0118-5.4646-33.113
		C261.7089,1018.9017,261.3636,1017.5529,263.9884,1017.688z"/>
	<path fill="#444141" d="M232.8974,560.526c0.0009-0.4342,0.0094-0.8683,0.0254-1.3022c2.108,0.0115,3.2608-1.5835,4.751-2.7004
		c6.7385-5.0502,14.8524-4.9222,22.6797-5.7453c1.7966-0.1889,2.9792,1.1528,3.7314,2.7438
		c0.4697,0.5523,0.9828,1.3199,0.7117,1.8953c-2.763,5.8639-4.0184,12.6353-7.3162,17.8881
		c-6.0585,9.6501-12.845,19.1093-23.6199,24.6495c-6.8842,3.5397-13.2609,7.9156-19.1172,13.1645
		c-4.6688,4.1844-10.3392,6.8539-16.7198,2.7198c-2.2381-1.4502-4.4035-1.1362-6.6583,0.0641
		c-1.6099,0.857-3.3016,2.0495-5.1931,0.5024c-2.7403-0.745-7.0956,1.8081-8.0365-1.8892
		c-0.8798-3.4572,3.1218-5.2385,5.8617-7.0187c1.367-0.8881,2.6271-1.9407,3.9912-2.9604
		c-1.1059-2.1391-4.9765-2.7073-4.1658-5.6375c0.6721-2.4293,3.0728-4.0109,5.3942-5.2949c3.271-1.8091,6.4744-3.7402,9.7068-5.6193
		c6.4005,3.2922,12.5785,1.4158,17.8118-2.1057c4.952-3.3323,9.7298-7.1693,13.787-11.7411
		c2.6184-2.9505,4.2363-6.0956,3.6635-10.1207C233.7808,561.4997,233.3512,561.0024,232.8974,560.526z"/>
	<path fill="#221715" d="M186.1721,614.4056c2.6359,0.1139,4.0464-2.2031,6.1648-3.1525c2.0859-0.9349,4.0212-1.6682,5.783,0.2593
		c5.1114,5.5917,10.7226,2.7652,14.3426-0.7717c8.2174-8.0289,18.6572-12.4902,27.6711-19.1424
		c3.7999-2.8042,7.3941-5.8768,9.2455-10.3861c1.0383-2.5287,3.1635-4.0314,4.87-5.9434c2.3365-2.618,5.1072-5.1037,3.2854-9.2269
		c-1.042-2.3583,0.9615-3.4047,2.1885-4.6749c2.1682-2.2447,3.9362-4.6569,4.3619-7.8452c1.2635-0.406,2.2868-1.7284,3.8875-0.7888
		c3.8338,2.2502,7.018,10.9069,5.096,14.9479c-2.0932,4.4009-4.6512,8.5788-6.939,12.8898
		c-1.6999,3.2033-4.1165,5.5668-7.2493,7.4428c-3.299,1.9756-4.0409,4.2277-1.494,8.0641
		c4.1306,6.222,7.2881,13.0901,10.8564,19.6855c-14.4655,0.8047-28.9512,1.3729-43.3805,2.6018
		c-3.0999,0.264-5.9964,2.9161-8.9867,4.4681c-8.7478,2.9811-18.1087-0.0753-26.8991,2.7466
		c-2.1044,0.6755-4.1387-0.4344-5.9592-1.505c-2.3896-1.4053-3.8874-3.7745-3.6292-6.3457c0.3068-3.0545,3.3746-1.4435,5.153-2.0997
		C185.1519,615.4038,185.6321,614.8237,186.1721,614.4056z"/>
	<path fill="#281E1C" d="M263.9884,1017.688c-1.2601,0.5467-1.3905,1.6578-1.4108,2.8239
		c-3.0087-3.0396-1.502-7.1764-2.0997-10.6702c-0.9966-5.8268-3.0752-11.7692-1.4946-19.5963
		C260.8508,1000.4846,262.4196,1009.0862,263.9884,1017.688z"/>
	<path fill="#433F3F" d="M692.8235,1402.5912c-2.8579-2.342-5.7159-4.684-8.5739-7.026c2.3682-2.8409,4.7384-3.4567,7.1128-0.0071
		c-0.4376,2.5397,1.3464,4.634,1.4173,7.0719L692.8235,1402.5912z"/>
	<path fill="#221714" d="M226.5077,745.1206c0.5934,1.7712,1.5247,3.2242-0.2596,3.7257
		C225.8231,748.9659,225.7,746.9065,226.5077,745.1206z"/>
	<path fill="#2F2725" d="M376.2856,600.6666c-0.4834-7.8859-3.5845-12.7462-7.9208-17.2782
		c-4.8294-5.0472-6.1888-11.9826-8.094-18.4697c-5.0735-17.2754-8.2699-35.0032-10.9178-52.7424
		c-1.282-8.5882-3.5198-17.3375-2.0448-26.3055c0.3529-2.1455-0.7248-4.5742-1.3353-6.8207
		c-1.4868-5.4711-3.1299-5.9299-7.5815-2.0259c-2.1566,1.8914-5.1798,4.7882-6.9118,1.7545
		c-1.5189-2.6607-4.1932-7.4066-1.0146-10.2658c3.2643-2.9362,2.4578-5.2145,1.7613-8.607
		c-1.2852-6.2601,2.4261-9.8583,8.5678-9.4335c-6.8183-30.541-5.9557-61.61-6.0576-92.7052
		c3.1373-1.0308,4.7372,0.9134,6.6611,2.0492c16.3016,9.6238,33.6632,16.4228,52.3923,19.5627
		c3.6078,0.6049,8.3576-1.814,10.648,1.7272c2.5888,4.0027,1.3636,9.2194,0.7751,13.7982
		c-1.1022,8.5759-2.0863,17.1276-2.6433,25.7731c-0.9456,14.6765-2.6067,29.3068-3.9684,43.9564
		c-0.0218,0.2346-0.1013,0.4695-0.0885,0.7007c0.8441,15.2993-2.5816,30.501-1.3111,45.7538
		c0.5267,6.323,1.1219,12.7142,4.7134,18.7232c4.6325,7.7509,2.9246,16.0999-2.3216,23.1285
		c-8.2019,10.9888-15.1919,22.5382-19.4343,35.6378C379.0195,592.0975,377.9008,595.6238,376.2856,600.6666z"/>
	<path fill="#363130" d="M497.2472,267.3717c-3.6742,7.4808-9.2818,11.1335-15.485,13.6589
		c-12.3644,5.0338-25.2184,8.2016-38.5952,9.3736c-4.6341,0.406-9.2052,1.5916-13.9234,1.2951
		c-1.6186-0.1017-3.3555,0.1835-4.9566-2.7996C449.6797,285.8221,472.5107,275.3085,497.2472,267.3717z"/>
	<path fill="#373130" d="M279.3114,260.3932c3.2062-0.0298,5.9619,1.1682,8.3241,3.239
		c8.2125,7.1993,18.6126,9.3643,28.6015,12.4494c4.0006,1.2356,8.1319,2.053,12.1186,3.3271
		c3.4253,1.0946,5.973,3.3653,7.6599,6.6644c-3.2739,2.9836-6.1118,0.2708-8.7999-0.1625
		c-12.253-1.9751-24.0138-5.83-35.3331-10.8553c-6.3745-2.83-11.7043-6.9755-12.4809-14.7493L279.3114,260.3932z"/>
	<path fill="#CFCCCC" d="M324.7465,191.1774c3.7284,0.1174,8.1248-0.6248,7.144,5.5521
		C329.0944,195.4125,326.4413,193.9115,324.7465,191.1774z"/>
	<path fill="#221715" d="M264.5938,316.3448c3.5952,7.9749,3.6645,16.1725,4.9291,24.0397
		c2.2559,14.0331,4.408,28.1344,5.4713,42.2922c0.9282,12.3596,2.6887,24.6197,3.3845,37.0238
		c1.1575,20.6366-3.4784,41.0486-1.5515,61.6014c0.8932,9.5276,0.588,19.1589,2.5241,28.6017
		c0.4652,2.269,0.4949,4.6653-0.2897,7.6865c-4.541-4.5778-3.7471-10.4226-5.0612-15.4412
		c-2.1628-8.2596-1.7108-16.7914-1.4417-25.2208c0.1965-6.1535-2.8973-12.1505-1.3512-18.147
		c2.2495-8.7249-1.461-17.149,0.2971-27.0735c-4.0577,5.1525-2.9302,10.9538-6.9514,14.7127
		c0.5447-6.4661-2.4414-12.617-0.7516-19.0352c0.1746-0.6631,0.2917-1.494,0.0499-2.0908
		c-2.773-6.843-1.8602-13.6666,0.2228-20.4017c1.5651-5.0606,1.6857-10.2342,1.248-15.3482
		c-0.5308-6.2014,2.0241-12.1255,1.4148-18.1774c-1.5514-15.4082-1.3315-30.844-1.2755-46.2795
		C265.4718,322.2888,263.0691,319.8498,264.5938,316.3448z"/>
	<path fill="#231715" d="M300.1246,481.3849c-12.5448-50.7811-17.0528-102.631-21.7286-154.4821
		c3.5976,8.1932,5.8061,16.7493,6.7296,25.4846c2.1319,20.1666,4.2681,40.3186,6.7992,60.4482
		c2.0925,16.6407,4.9608,33.2091,6.1774,49.9789C298.5516,469.0086,300.8505,475.0324,300.1246,481.3849z"/>
	<path fill="#434140" d="M820.4713,1606.3357c5.5707,9.7787,4.8157,12.4728-3.7454,16.6281
		c-3.1589,1.5332-6.4796,2.7299-9.6751,4.1919c-6.5664,3.0046-7.1375,2.8563-11.9293-3.7158
		c1.4821-1.4198,2.9982,0.1024,4.4951,0.009c3.7866-0.2362,4.8661-2.6332,4.7018-5.6797
		c-0.3643-6.7585-5.3293-12.4832-12.1242-14.8231c-3.0306-1.0439-6.4332-0.8785-9.2565-2.9204
		c8.6362-3.0767,13.4315-10.5115,19.652-17.2738c0.7103,4.9823,1.5059,9.4332,1.937,13.9193
		c0.3917,4.0758,1.9696,7.6674,3.6349,11.304c1.3239,2.8909,3.1848,4.3093,6.5369,4.2086
		C818.0672,1612.0826,820.1119,1610.8815,820.4713,1606.3357z"/>
	<path fill="#434040" d="M749.4332,1514.3892c-4.7114-2.587-9.3911-5.2345-14.1503-7.7302
		c-1.8077-0.9481-2.9016-2.1765-3.2357-4.2214c-1.2278-7.5168-2.1283-15.0533-2.5909-23.6376
		c7.1655,3.4066,12.3005,7.8927,16.8858,12.5017c3.6031,3.6219,1.7268,9.7754,2.9213,14.7125
		c0.6436,2.6602,0.1188,5.6027,0.1213,8.4178L749.4332,1514.3892z"/>
	<path fill="#444141" d="M767.7828,1545.5724c5.5485,1.325,10.1566,4.7278,15.3121,6.9089c3.038,1.2853,2.9174,3.734,3.1982,6.3715
		c1.2766,11.991,1.3429,11.9838-10.5195,10.7976c-7.97-0.7969-7.9835-0.7968-7.9941-8.6133
		c-0.007-5.1685,0.0312-10.3369,0.0491-15.5054L767.7828,1545.5724z"/>
	<path fill="#434141" d="M749.3847,1514.432c3.1811,1.5114,6.0716,3.9103,9.2338,5.0072
		c8.2094,2.8479,10.4429,8.2783,9.2647,16.2576c-0.4764,3.2263-0.0928,6.58-0.1005,9.8756l0.0458-0.0406
		c-4.3042-1.8101-8.2063-4.462-12.7159-5.8751c-2.3413-0.7335-4.3351-2.4269-4.1572-5.0673
		c0.4603-6.8279-2.2225-13.3828-1.5222-20.2002L749.3847,1514.432z"/>
	<path fill="#434140" d="M709.7585,1436.604c6.6441,4.2767,10.1415,11.5527,15.8652,16.7382
		c1.226,1.1105,1.7565,3.3239,2.0082,5.1135c0.8377,5.9557,0.5701,12.0194,1.7666,18.2188
		c-5.9105-3.0085-11.5662-5.3007-12.8917-13.0193c-1.5703-9.1449-4.4103-18.0717-6.7-27.093L709.7585,1436.604z"/>
	<path fill="#43403F" d="M709.8069,1436.5621c-12.7393-7.785-15.4778-20.5698-16.9835-33.9709l-0.0438,0.0388
		c7.1093,3.2472,12.1118,7.8342,13.0233,16.369c0.6332,5.9305,3.3098,11.5725,3.9556,17.605L709.8069,1436.5621z"/>
	<path fill="#434040" d="M101.5769,338.6176c-0.7789-2.3492,0.7038-4.2284,2.4132-4.2966
		c6.3903-0.2548,10.5593-7.8987,18.2732-5.2105c-6.8418,11.6158,0.6691,20.6027,5.0316,30.1709
		c0.0935,0.205,0.2824,0.3772,0.4546,0.5343c4.3366,3.9551,4.1402,5.2215-1.349,8.4264c-4.7607,2.7795-9.9531,3.8133-15.5435,3.7979
		c3.0589-1.4728,5.3074-3.5124,6.5816-6.6189c1.2262-2.9894,1.0467-6.0385,0.4476-9.0237
		c-0.9746-4.8564-2.7906-9.4436-5.3287-13.7188C109.2347,337.0816,107.3261,336.3781,101.5769,338.6176z"/>
	<path fill="#434040" d="M178.986,481.3427c0.1954,4.3309,4.0408,4.7784,6.821,6.0591c3.8341,1.7663,5.322,3.7741,3.4646,8.1256
		c-1.8915,4.4315-2.7549,9.0815,4.0184,10.6744c2.4255,0.5704,2.9629,2.6172,2.8296,4.9557
		c-0.1594,2.7952-0.1268,5.6013-0.1774,8.4027c-0.2924,0.5987-0.7259,1.0665-1.3007,1.4034
		c-1.6644,0.0624-3.193-0.3651-4.7793-0.9108c-6.7125-2.3094-7.062-2.3477-5.0014-9.119c1.4955-4.9142,1.8917-8.445-4.2957-9.8649
		c-4.9725-1.141-5.0436-5.0796-3.8512-8.9102c1.0319-3.315,1.5214-6.3558-0.5422-9.3797
		C176.7117,481.5206,177.4716,480.6926,178.986,481.3427z"/>
	<path fill="#434040" d="M150.7577,426.1499c2.4568,1.7675,4.9701,3.4625,7.3558,5.3214c2.9055,2.2639,5.3322,4.8028,3.2272,8.9197
		c-1.322,2.5856,0.2263,3.6801,2.214,4.9377c6.8929,4.3614,6.8379,4.4238,4.3216,12.2131
		c-0.5715,1.7692-1.0202,3.5781-1.5254,5.3687c0.9523,1.6137,0.9369,2.7636-1.3532,2.8233
		c0.5382-3.2791-1.5871-4.6855-4.1423-5.5582c-3.882-1.3259-4.5133-3.332-3.3006-7.4112c2.5384-8.5383,2.2275-8.729-5.7951-13.3447
		c-2.5013-1.4391-4.1734-2.5467-2.7702-5.9294c0.9452-2.2787,0.2795-5.1245,1.8125-7.3781L150.7577,426.1499z"/>
	<path fill="#43403F" d="M145.1337,410.5441c-1.5027,0.1335-2.653-0.8178-3.9729-1.2507c-4.4517-1.4602-6.7646-3.869-4.6039-8.802
		c0.451-1.0298,0.0732-2.4428,0.5735-3.427c1.6037-3.1548,0.4203-5.143-2.6157-5.8216c-5.0715-1.1335-5.7027-3.891-4.0758-8.3152
		c0.7664-2.0841,0.6115-4.507,0.9868-7.7503c4.0009,4.4662,10.0954,6.3427,8.1289,13.7652c-0.9583,3.6173,2.493,4.687,5.0871,5.6566
		c1.901,0.7106,4.0597,1.4278,3.1096,3.6945c-1.6684,3.9804-0.2562,8.5295-2.647,12.2754L145.1337,410.5441z"/>
	<path fill="#434040" d="M164.9977,465.7338c1.2234-0.571,1.3359-1.6743,1.3532-2.8233c0.2341,0.0158,0.4826-0.0141,0.7003,0.0542
		c4.275,1.3426,8.58,3.0949,11.881,5.8906c4.2654,3.6125-1,8.268,0.0539,12.4874c-0.9381,0.4789-1.8762,0.9578-2.8143,1.4366
		c-4.2547-0.5729-7.4924-3.6362-11.6059-4.6839c-2.4085-0.6134-2.888-2.9726-2.2383-5.1887
		C163.0434,470.4647,164.0932,468.1206,164.9977,465.7338z"/>
	<path fill="#424040" d="M194.6415,520.9638c0.4335-0.4678,0.8671-0.9356,1.3007-1.4034c0.5397,3.8692,4.1367,3.31,6.4896,4.1104
		c4.2457,1.4442,7.0779,2.8957,5.1612,8.3228c-0.9568,2.7092,0.1569,6.0491-1.6319,8.7726l0.0228-0.02
		c-11.342-3.1236-11.3394-3.1236-11.306-14.2481C194.6834,524.6533,194.6545,522.8086,194.6415,520.9638z"/>
	<path fill="#434040" d="M205.961,540.7661c1.0715,0.4515,2.121,0.9673,3.2181,1.3444c9.2084,3.1655,9.5014,3.7388,7.068,13.5725
		c-0.278,1.1234-0.2967,2.3111-0.4356,3.4689c-0.463,0.5621-0.9458,0.5518-1.4456,0.0501c-0.2318-0.0231-0.4769-0.0051-0.6935-0.075
		c-10.3185-3.3315-10.6959-4.0571-8.0505-14.918c0.2722-1.1174,0.2483-2.3069,0.3618-3.463
		C205.9839,540.7462,205.961,540.7661,205.961,540.7661z"/>
	<path fill="#423E3E" d="M215.8653,560.584c4.4485,0.8806,8.1047,3.3782,12.7021,5.8577c-2.7981,1.8311-4.9606,3.4199-7.2854,4.7177
		c-2.2182,1.2384-4.3515,2.7588-7.2861,3.2122c0.5797-4.7212,0.1493-9.394,1.8966-13.8123L215.8653,560.584z"/>
	<path fill="#423F3E" d="M145.1044,410.569c8.6904,4.4018,8.6904,4.4018,5.6533,15.5808l0.0442-0.0377
		c-8.1572-4.3728-8.4503-5.1776-5.6682-15.5681L145.1044,410.569z"/>
	<path fill="#2F2725" d="M232.8974,560.526c0.7079,0.257,1.1704,0.7258,1.2886,1.492
		C233.4745,561.7642,233.0304,561.2794,232.8974,560.526z"/>
	<path fill="#423E3E" d="M214.366,559.2021c0.4818-0.0167,0.9637-0.0334,1.4456-0.0501c0.0179,0.4774,0.0358,0.9547,0.0537,1.432
		l0.0272-0.0246C215.3837,560.1069,214.8748,559.6545,214.366,559.2021z"/>
	<path fill="#F2F2F2" d="M339.0613,173.6552c7.7074,2.9294,15.6544,4.3384,24.4467,3.2811
		c-1.0644,4.3213-3.7468,5.6086-7.1189,5.7773c-6.8434,0.3425-12.8192-1.6904-17.5264-6.8742
		C338.3444,175.0582,338.4105,174.3301,339.0613,173.6552z"/>
	<path fill="#F1F0F0" d="M374.9763,193.3709c2.8366,5.6992,0.8176,11.0015,0.6209,16.204c-0.05,1.3244-1.01,2.9002-2.6024,2.8795
		c-2.1528-0.0279-2.4987-2.1615-2.4622-3.5864C370.6689,203.5421,371.5105,198.3354,374.9763,193.3709z"/>
	<path fill="#EDEDEC" d="M379.6995,192.7264c4.2061,5.744,4.9117,10.8923,4.8195,16.228c-0.027,1.5694-0.0382,3.584-2.3304,3.5771
		c-1.6622-0.005-2.1985-1.5441-2.5007-2.9495C378.6071,204.557,378.3016,199.5209,379.6995,192.7264z"/>
	<path fill="#C5C1C1" d="M339.0612,173.6552c-0.0662,0.7281-0.1324,1.4562-0.1986,2.1842
		c-1.0954-0.5979-2.4417-1.2737-1.8122-2.7065C337.3469,172.4583,338.5438,172.7753,339.0612,173.6552z"/>
	<path fill="#221714" d="M470.5608,665.2218c-11.1612,1.1339-22.3139,2.3619-33.4861,3.373
		c-9.54,0.8634-19.1055,1.6528-28.6167,2.6165c-14.8898,1.5085-29.8859,1.6785-44.7096,3.8278
		c-0.6953,0.1008-1.4095,0.0907-2.1152,0.0971c-24.4439,0.2214-48.859,2.5173-73.3135,1.3434
		c-11.9075-0.5717-23.7802-1.8848-35.6652-2.9022c-5.7021-0.4881-11.3963-1.0685-17.4583-1.6416
		c1.8856-1.6724,3.7608-0.9781,5.4347-0.9728c23.1804,0.0743,46.3342-1.2482,69.4946-1.8212
		c12.6427-0.3128,25.4072,0.0771,37.9729-1.2598c12.2219-1.3004,24.4255-0.4501,36.5857-1.2975
		c23.887-1.6646,47.7784-2.8325,71.7257-2.7377C461.1941,663.6114,466.2086,661.0081,470.5608,665.2218z"/>
	<path fill="#281E1C" d="M470.5608,665.2218c-4.4914-2.7806-9.4579-0.6718-14.1512-1.375c0.5554-0.3972,1.0914-1.1098,1.6689-1.1451
		c11.7873-0.7215,23.6417,0.7523,35.4124-1.2899C486.0847,664.3837,478.1945,663.9882,470.5608,665.2218z"/>
</g>
</svg>
