<?xml version="1.0" encoding="UTF-8" standalone="no"?>
<svg
   version="1.0"
   width="1655.7277pt"
   height="102pt"
   viewBox="0 0 1655.7277 102"
   preserveAspectRatio="xMidYMid"
   id="svg2"
   xmlns="http://www.w3.org/2000/svg"
   xmlns:svg="http://www.w3.org/2000/svg">
  <defs
     id="defs2" />
  <metadata
     id="metadata1">
Created by potrace 1.16, written by Peter Selinger 2001-2019
</metadata>
  <g
     transform="matrix(0.1,0,0,-0.1,-226.07676,546)"
     fill="#000000"
     stroke="none"
     id="g2">
    <path
       d="m 12740,5325 c 74,-74 139,-135 145,-135 6,0 71,61 145,135 l 135,135 h 2828 c 2688,0 2828,-1 2825,-17 -3,-17 -147,-18 -2823,-21 l -2820,-2 -127,-127 c -71,-70 -128,-132 -128,-138 0,-5 75,-85 167,-177 l 168,-168 h 2507 c 2501,0 2508,0 2508,-20 0,-20 -7,-20 -2512,-20 h -2513 l -180,180 -180,180 -125,-125 -125,-125 h -415 -415 l -220,-220 -220,-220 h -907 c -901,0 -908,0 -908,20 0,20 7,20 898,20 h 897 l 215,215 215,215 h 420 420 l 122,122 123,123 -137,137 -138,138 h -342 c -298,0 -343,2 -343,15 0,13 46,15 353,15 h 352 z m 4425,-155 100,-100 h 550 550 l 96,96 c 62,62 101,94 109,89 8,-5 -20,-40 -86,-106 l -99,-99 h -565 -565 l -95,95 -95,95 h -1902 c -1685,0 -1903,2 -1903,15 0,13 218,15 1903,15 h 1902 z m -3395,-165 115,-115 h -200 -200 l -115,115 -115,115 h 200 200 z m 730,0 115,-115 h -205 -205 l -115,115 -115,115 h 205 205 z m 720,0 115,-115 h -205 -205 l -107,107 c -60,59 -108,111 -108,115 0,5 89,8 198,8 h 197 z m 720,0 115,-115 h -200 -200 l -115,115 -115,115 h 200 200 z m 720,0 115,-115 h -200 -200 l -115,115 -115,115 h 200 200 z"
       id="path1" />
    <path
       d="m 8212.3885,5307.2 c -72.4608,-72.4608 -136.1088,-132.192 -141.984,-132.192 -5.8752,0 -69.5232,59.7312 -141.984,132.192 l -132.192,132.192 H 5027.0509 c -2632.0891,0 -2769.1771,-0.9792 -2766.2395,-16.6464 2.9376,-16.6464 143.9424,-17.6256 2764.2811,-20.5632 l 2761.344,-1.9584 124.3584,-124.3584 c 69.5232,-68.544 125.3376,-129.2544 125.3376,-135.1296 0,-4.896 -73.44,-83.232 -163.5264,-173.3184 L 7708.1005,4802.912 H 5253.2461 c -2448.9787,0 -2455.8331,0 -2455.8331,-19.584 0,-19.584 6.8544,-19.584 2459.7499,-19.584 h 2460.7296 l 176.256,176.256 176.256,176.256 122.4,-122.4 122.4,-122.4 h 406.368 406.368 l 215.424,-215.424 215.424,-215.424 h 888.1345 c 882.26,0 889.114,0 889.114,19.584 0,19.584 -6.854,19.584 -879.322,19.584 h -878.3425 l -210.528,210.528 -210.528,210.528 h -411.264 -411.264 l -119.4624,119.4624 -120.4416,120.4416 134.1504,134.1504 135.1296,135.1296 h 334.8864 c 291.8016,0 335.8656,1.9584 335.8656,14.688 0,12.7296 -45.0432,14.688 -345.6576,14.688 h -344.6784 z m -4332.96,-151.776 -97.92,-97.92 h -538.56 -538.5595 l -94.0032,94.0032 c -60.7104,60.7104 -98.8992,92.0448 -106.7328,87.1488 -7.8336,-4.896 19.584,-39.168 84.2112,-103.7952 l 96.9408,-96.9408 h 553.2475 553.248 l 93.024,93.024 93.024,93.024 h 1862.4384 c 1649.952,0 1863.4176,1.9584 1863.4176,14.688 0,12.7296 -213.4656,14.688 -1863.4176,14.688 H 3977.3485 Z m 3324.384,-161.568 -112.608,-112.608 h 195.84 195.84 l 112.608,112.608 112.608,112.608 h -195.84 -195.84 z m -714.816,0 -112.608,-112.608 h 200.736 200.736 l 112.608,112.608 112.608,112.608 h -200.736 -200.736 z m -705.024,0 -112.608,-112.608 h 200.736 200.736 l 104.7744,104.7744 c 58.752,57.7728 105.7536,108.6912 105.7536,112.608 0,4.896 -87.1488,7.8336 -193.8816,7.8336 h -192.9024 z m -705.024,0 -112.608,-112.608 h 195.84 195.84 l 112.608,112.608 112.608,112.608 h -195.84 -195.84 z m -705.024,0 -112.608,-112.608 h 195.84 195.84 l 112.608,112.608 112.608,112.608 h -195.84 -195.84 z"
       id="path1-7"
       style="stroke-width:9.792" />
  </g>
</svg>
