<?xml version="1.0" encoding="UTF-8" standalone="no"?>
<svg xmlns="http://www.w3.org/2000/svg" width="744" height="1052" viewBox="20 400 725 550">
<path style="fill:black" d="m 322.89067,873.03031 c 11.05769,17.89165 16.23229,-43.32103 28.10779,-332.4966 4.09489,-99.71315 9.4953,-211.35372 12.00105,-248.09016 2.50566,-36.73643 4.57927,-73.12696 4.60297,-80.86784 0.029,-8.66426 1.73268,-12.33212 4.43193,-9.54193 5.60158,5.79037 12.71568,115.69334 21.91111,338.49993 8.24603,199.80333 15.64915,326.11438 19.47649,332.30713 5.27906,8.5418 10.2134,-1.13869 13.06843,-25.63848 1.61398,-13.84996 7.25701,-126.08763 12.54008,-249.41707 5.28308,-123.32943 11.77944,-255.94645 14.4365,-294.70447 2.65706,-38.75802 4.89667,-76.32937 4.97607,-83.49188 0.10803,-9.70143 1.19841,-11.19757 4.27515,-5.8663 4.25469,7.37247 12.22386,121.54924 16.98279,243.31919 6.42131,164.30373 17.24697,374.78114 19.79966,384.95174 1.52375,6.07108 4.44572,11.0383 6.49325,11.0383 8.13354,0 8.56966,-6.56563 26.34067,-396.59044 6.65991,-146.16684 11.44404,-216.08006 14.57228,-212.95183 3.26056,3.26057 11.93395,149.32369 19.05526,320.89894 8.23052,198.29857 11.20014,235.88428 18.76644,237.51804 6.94389,1.49943 10.55007,-44.66648 18.92595,-242.28901 4.11489,-97.08912 8.95518,-195.8481 10.75617,-219.46437 l 3.27444,-42.93868 3.42885,26.2403 c 1.88591,14.43217 6.82226,105.67687 10.96975,202.766 7.92041,185.40971 10.37064,217.0789 16.79542,217.0789 5.89487,0 8.99061,-37.01172 14.96475,-178.91118 2.98277,-70.84882 7.06242,-141.69765 9.06585,-157.44183 l 3.6427,-28.62579 0.59163,23.85482 c 0.32544,13.12016 2.98396,74.23112 5.90793,135.80213 7.77668,163.75883 14.88166,169.80392 22.63012,19.25422 3.43022,-66.64749 4.16091,-71.6298 4.76432,-32.48559 0.39201,25.42943 2.57013,47.38332 4.84035,48.7864 6.12508,3.78553 11.46678,-50.32437 5.5519,-56.23926 -2.69979,-2.69973 -4.94324,-20.0445 -4.98164,-38.54392 -0.0834,-38.34858 -7.09381,-57.53076 -11.30019,-30.91973 -3.40365,21.53259 -7.22259,79.04455 -8.21508,123.71499 -1.16115,52.26249 -3.35123,30.00875 -8.92121,-90.64832 -4.90942,-106.3487 -7.41417,-128.81605 -14.36135,-128.81605 -6.41546,0 -9.07508,32.01206 -14.60661,175.81163 -2.99283,77.80164 -6.96043,146.61947 -8.81694,152.9285 -1.8565,6.30908 -6.11458,-58.09895 -9.46234,-143.12894 -6.1826,-157.02899 -12.54264,-251.64606 -17.23052,-256.33395 -7.58976,-7.58973 -12.22432,13.42366 -16.67644,75.61142 -4.55877,63.67762 -19.15232,376.99992 -19.15232,411.19892 0,8.18926 -0.94538,13.94424 -2.10078,12.78876 -1.15549,-1.15544 -6.56466,-104.02937 -12.0205,-228.6087 -9.62607,-219.80214 -16.15038,-315.39646 -22.19327,-325.17408 -12.75285,-20.6345 -18.15335,38.24161 -30.87214,336.56896 -5.72065,134.18051 -12.26623,246.0042 -14.54589,248.49703 -2.40795,2.63314 -4.14484,-3.77555 -4.14484,-15.29343 0,-41.08201 -19.3135,-459.47222 -24.0559,-521.12522 -5.31202,-69.05761 -8.1244,-85.95369 -14.30747,-85.95369 -10.23029,0 -16.35994,68.94792 -25.87277,291.02884 -9.31916,217.55452 -17.04845,369.1328 -18.9182,371.00255 -2.30714,2.30714 -6.89878,-83.51095 -17.17008,-320.90742 C 387.59252,223.13949 381.16254,156.32826 367.24973,181.21716 361.1756,192.083 353.7009,304.31792 343.95503,530.99179 338.76528,651.6972 332.94409,774.07244 331.0191,802.93678 l -3.50007,52.48058 -3.503,-38.16769 C 322.0893,796.25743 317.10501,696.42499 312.9399,595.39981 299.07046,259.00287 293.7904,189.86782 281.96805,189.86782 c -6.18261,0 -8.99518,16.89377 -14.30994,85.95369 -4.84002,62.8912 -24.03035,477.67504 -24.04585,519.72027 -0.005,12.54043 -1.73488,19.37555 -4.22721,16.69838 -2.32075,-2.49283 -6.66895,-65.72004 -9.66277,-140.50491 C 217.39486,363.79002 209.762,238.89357 202.55777,227.2368 c -12.39042,-20.04804 -17.66336,36.09814 -30.54368,325.22433 -8.82679,198.1363 -12.74901,259.5672 -13.91016,217.86458 -2.13145,-76.54665 -20.61061,-445.25077 -23.21389,-463.17241 -4.54626,-31.29745 -13.57266,-33.50491 -17.22523,-4.21253 -3.85327,30.90203 -11.32442,172.87457 -15.39036,292.45904 -1.86939,54.9836 -4.859465,92.58267 -6.829385,85.87737 -1.92719,-6.56008 -5.97688,-75.26197 -8.99947,-152.67088 -5.72083,-146.51489 -8.29041,-176.52569 -15.11459,-176.52569 -7.09986,0 -9.12165,18.64799 -15.25961,140.74346 L 50.075345,612.09819 46.43958,529 c -3.526736,-80.60779 -8.122395,-108.68884 -14.441336,-88.24096 -1.551154,5.01949 -3.181934,24.69162 -3.623894,43.71585 -0.441961,19.02422 -2.72235,34.58948 -5.06748,34.58948 -2.345222,0 -3.293702,5.90408 -2.107623,13.12016 1.185989,7.21609 2.332895,20.2244 2.54867,28.90737 0.229381,9.22986 2.373986,14.56246 5.163269,12.83857 2.624004,-1.62174 5.088208,-22.68107 5.476019,-46.79849 0.548707,-34.13028 1.870571,-24.10463 5.963638,45.2308 5.027484,85.16273 9.093522,109.04455 14.374768,84.42981 2.190624,-10.20973 11.639904,-196.15952 12.938764,-254.61685 l 0.52999,-23.85482 3.73429,23.85482 c 2.05384,13.12016 6.14352,83.96898 9.08832,157.44183 5.83506,145.58738 8.93463,183.68215 14.94511,183.68215 6.424865,0 8.875095,-31.66919 16.795415,-217.0789 4.14749,-97.08913 9.08384,-188.33383 10.96975,-202.766 l 3.42894,-26.2403 3.29379,42.93868 c 1.81168,23.61627 6.69689,123.44871 10.85616,221.84986 8.44273,199.74145 11.61361,239.35023 19.36701,241.92345 7.04516,2.33816 9.74569,-33.56965 18.55275,-246.69442 6.74648,-163.26007 15.52542,-310.55939 18.69823,-313.73218 3.36154,-3.36153 7.71303,59.859 14.53392,211.15644 17.38595,385.64405 18.23371,398.37552 26.5275,398.37552 2.12351,0 5.07533,-5.90404 6.55965,-13.12012 2.85758,-13.89214 10.08199,-145.01333 14.78632,-268.36677 6.02198,-157.90501 17.32138,-350.29198 20.95487,-356.78465 5.49263,-9.81473 15.31493,152.84006 26.7314,442.66203 4.07179,103.36962 11.42988,210.03688 14.87288,215.60795 z"/>
</svg>
