<svg xmlns="http://www.w3.org/2000/svg" width="60" height="60" viewBox="0 0 60 60" id="printer"><path style="line-height:normal;text-indent:0;text-align:start;text-decoration-line:none;text-decoration-style:solid;text-decoration-color:#000;text-transform:none;block-progression:tb;isolation:auto;mix-blend-mode:normal" d="m 18,4 c -0.55226,6e-5 -0.99994,0.44774 -1,1 l 0,9 -1.84375,0 L 14,14 c -0.55226,6e-5 -0.99994,0.44774 -1,1 l 0,4 -3,0 c -2.1987,0 -4,1.8013 -4,4 l 0,18 c 0,2.1987 1.8013,4 4,4 l 3,0 0,3 c 6e-5,0.55226 0.44774,0.99994 1,1 l 3,0 0,5 c 6e-5,0.55226 0.44774,0.99994 1,1 l 24,0 c 0.55226,-6e-5 0.99994,-0.44774 1,-1 l 0,-5 3,0 c 0.55226,-6e-5 0.99994,-0.44774 1,-1 l 0,-3 3,0 c 2.1987,0 4,-1.8013 4,-4 l 0,-18 c 0,-2.1987 -1.8013,-4 -4,-4 l -3,0 0,-4 c -6e-5,-0.55226 -0.44774,-0.99994 -1,-1 l -3,0 0,-9 c -6e-5,-0.55226 -0.44774,-0.99994 -1,-1 z m 1,2 22,0 0,13 -22,0 z m -4,10 0.15625,0 1.84375,0 0,3 -2,0 z m 28,0 2,0 0,3 -2,0 z m -33,5 40,0 c 1.1253,0 2,0.8747 2,2 l 0,8 -6.20703,0 c -0.67616,-0.01 -0.67616,1.00956 0,1 L 52,32 l 0,9 c 0,1.1253 -0.8747,2 -2,2 l -3,0 0,-4 1.5,0 c 1.35232,0.0191 1.35232,-2.01913 0,-2 l -37,0 c -1.35232,-0.0191 -1.35232,2.01913 0,2 l 1.5,0 0,4 -3,0 C 8.8747,43 8,42.1253 8,41 l 0,-12 4,0 c 0.67616,0.01 0.67616,-1.00956 0,-1 l -4,0 0,-5 c 0,-1.1253 0.8747,-2 2,-2 z m 9,2 c -1.09865,0 -2,0.90135 -2,2 0,1.09865 0.90135,2 2,2 1.09865,0 2,-0.90135 2,-2 0,-1.09865 -0.90135,-2 -2,-2 z m -6.10547,0.004 c -0.61784,0.033 -1.2004,0.35162 -1.55664,0.88476 -0.47498,0.71086 -0.44431,1.64986 0.0762,2.32813 0.52046,0.67827 1.41895,0.95254 2.22852,0.67773 C 14.45212,26.61972 15,25.85494 15,25 c 0.01,-0.67616 -1.00956,-0.67616 -1,0 0,0.43028 -0.27029,0.80896 -0.67773,0.94727 -0.40745,0.13831 -0.8533,0.003 -1.11524,-0.33789 -0.26194,-0.34137 -0.27807,-0.8063 -0.0391,-1.16407 0.23905,-0.35776 0.67617,-0.52347 1.0918,-0.41211 0.66869,0.21731 0.94577,-0.81964 0.25781,-0.96484 -0.20645,-0.0553 -0.4171,-0.0754 -0.62305,-0.0644 z M 19,24 c 0.55821,0 1,0.44179 1,1 0,0.55821 -0.44179,1 -1,1 -0.55821,0 -1,-0.44179 -1,-1 0,-0.55821 0.44179,-1 1,-1 z m -4,4 c -0.67616,-0.01 -0.67616,1.00956 0,1 l 1.19141,0 c 0.67616,0.01 0.67616,-1.00956 0,-1 z m 3.90039,0 c -0.67616,-0.01 -0.67616,1.00956 0,1 L 50,29 c 0.67616,0.01 0.67616,-1.00956 0,-1 z m 23,3 c -0.67616,-0.01 -0.67616,1.00956 0,1 l 1.35547,0 c 0.67616,0.01 0.67616,-1.00956 0,-1 z M 15,39 l 2,0 0,8 -2,0 z m 4,0 22,0 0,14 -22,0 z m 24,0 2,0 0,8 -2,0 z m -21.5,2 c -0.67616,-0.01 -0.67616,1.00956 0,1 l 3.5,0 c 0.67616,0.01 0.67616,-1.00956 0,-1 z m 6.5,0 c -0.67616,-0.01 -0.67616,1.00956 0,1 l 10.5,0 c 0.67616,0.01 0.67616,-1.00956 0,-1 z m -6.5,2 c -0.67616,-0.01 -0.67616,1.00956 0,1 l 7.95117,0 c 0.67616,0.01 0.67616,-1.00956 0,-1 z m 9.78125,0 c -0.67616,-0.01 -0.67616,1.00956 0,1 L 38.5,44 c 0.67616,0.01 0.67616,-1.00956 0,-1 z M 21.5,45 c -0.67616,-0.01 -0.67616,1.00956 0,1 l 2.60352,0 c 0.67616,0.01 0.67616,-1.00956 0,-1 z m 4.72656,0 c -0.67616,-0.01 -0.67616,1.00956 0,1 L 38.5,46 c 0.67616,0.01 0.67616,-1.00956 0,-1 z M 21.5,47 c -0.67616,-0.01 -0.67616,1.00956 0,1 l 5.30664,0 c 0.67616,0.01 0.67616,-1.00956 0,-1 z m 7.07227,0 c -0.67616,-0.01 -0.67616,1.00956 0,1 l 3.46484,0 c 0.67616,0.01 0.67616,-1.00956 0,-1 z m 5.58984,0 c -0.67616,-0.01 -0.67616,1.00956 0,1 L 38.5,48 c 0.67616,0.01 0.67616,-1.00956 0,-1 z M 21.5,49 c -0.67616,-0.01 -0.67616,1.00956 0,1 l 3.4082,0 c 0.67616,0.01 0.67616,-1.00956 0,-1 z m 5.97266,0 c -0.67616,-0.01 -0.67616,1.00956 0,1 L 32.5,50 c 0.67616,0.01 0.67616,-1.00956 0,-1 z" color="#000" font-family="sans-serif" font-weight="400" overflow="visible"></path></svg>