<svg xmlns="http://www.w3.org/2000/svg" width="234" height="139" viewBox="0 0 2340 1390">
<g id="l2RkyGacr9kXJpVItyJW2fr" fill="rgb(191,82,79)" style="transform: none;"><g style="transform: none;"><path id="p1D6IkWCqz" d="M153 1322 c-54 -3 -62 -6 -67 -25 -3 -13 -5 -146 -6 -297 0 -151 -2 -418 -4 -592 -2 -175 -1 -320 3 -322 4 -3 19 25 34 62 14 37 56 139 93 227 36 88 81 196 99 240 l32 80 5 312 5 311 -66 4 c-36 2 -94 2 -128 0z"></path><path id="p18oZ5931Z" d="M416 978 c-5 -277 -9 -858 -6 -903 1 -12 16 22 77 170 24 61 50 124 57 140 26 59 39 92 86 210 l47 120 2 303 3 302 -130 0 -129 0 -7 -342z"></path><path id="pNiOGKy5Z" d="M749 1318 c0 -2 -2 -284 -5 -628 l-4 -625 30 64 c16 35 30 67 30 72 0 5 9 28 19 51 10 24 28 66 40 93 11 28 28 68 37 90 28 65 54 129 103 253 41 104 93 229 106 259 8 17 15 37 15 45 0 8 4 18 8 24 5 5 15 25 22 44 7 19 19 49 26 65 20 46 74 185 74 190 0 5 -500 7 -501 3z"></path></g></g><g id="l5BecxG4UhIu9t8QJM90A5s" fill="rgb(233,222,226)" style="transform: none;"><g style="transform: none;"><path id="p8d2KTTuJ" d="M1305 1275 c-9 -26 -16 -47 -14 -49 2 -1 22 -11 43 -21 22 -11 70 -49 107 -85 75 -73 123 -162 135 -248 6 -51 6 -52 -18 -52 -22 0 -26 6 -30 38 -13 91 -99 224 -181 281 -71 48 -82 48 -96 -1 -12 -38 -11 -44 4 -53 87 -51 133 -106 164 -196 l20 -54 -82 -3 c-68 -3 -84 0 -92 14 -19 32 -57 74 -76 84 -20 11 -13 23 -93 -160 -25 -58 -47 -116 -48 -130 -3 -24 -1 -25 58 -25 51 0 66 4 98 29 20 15 41 38 46 51 11 30 28 35 112 35 l71 0 -7 -31 c-17 -85 -95 -176 -186 -217 -59 -26 -139 -33 -220 -19 -46 8 -46 7 -63 -28 -22 -46 -22 -65 1 -65 10 0 22 -4 28 -9 5 -5 43 -12 84 -14 133 -8 238 32 336 128 50 50 66 74 92 142 18 45 32 89 32 98 0 9 9 15 26 15 25 0 25 -2 19 -42 -10 -71 -71 -184 -130 -243 -71 -70 -178 -123 -278 -138 -73 -10 -103 -7 -236 25 -16 3 -39 -36 -43 -73 -4 -36 78 -61 207 -61 164 -2 306 55 413 163 92 92 139 182 166 314 11 54 15 60 40 63 25 3 27 7 24 40 -3 32 -7 37 -30 40 -23 3 -28 8 -28 32 0 50 -48 184 -89 248 -47 72 -107 133 -176 177 -82 53 -89 53 -110 0z"></path><path id="pDrv5d7ON" d="M1810 826 l-55 -11 0 -40 0 -40 75 -11 c66 -10 96 -9 245 13 196 28 209 31 177 44 -22 8 -356 60 -376 58 -6 -1 -36 -6 -66 -13z"></path></g></g>
</svg>