<?xml version="1.0" encoding="UTF-8" standalone="no"?>
<svg
   xmlns:dc="http://purl.org/dc/elements/1.1/"
   xmlns:cc="http://creativecommons.org/ns#"
   xmlns:rdf="http://www.w3.org/1999/02/22-rdf-syntax-ns#"
   xmlns:svg="http://www.w3.org/2000/svg"
   xmlns="http://www.w3.org/2000/svg"
   xmlns:xlink="http://www.w3.org/1999/xlink"
   xmlns:sodipodi="http://sodipodi.sourceforge.net/DTD/sodipodi-0.dtd"
   xmlns:inkscape="http://www.inkscape.org/namespaces/inkscape"
   viewBox="0 0 48 48"
   version="1.1"
   id="svg29"
   sodipodi:docname="timer-20.svg"
   inkscape:version="0.92.4 (5da689c313, 2019-01-14)">
  <metadata
     id="metadata33">
    <rdf:RDF>
      <cc:Work
         rdf:about="">
        <dc:format>image/svg+xml</dc:format>
        <dc:type
           rdf:resource="http://purl.org/dc/dcmitype/StillImage" />
        <dc:title></dc:title>
      </cc:Work>
    </rdf:RDF>
  </metadata>
  <sodipodi:namedview
     pagecolor="#ffffff"
     bordercolor="#666666"
     borderopacity="1"
     objecttolerance="10"
     gridtolerance="10"
     guidetolerance="10"
     inkscape:pageopacity="0"
     inkscape:pageshadow="2"
     inkscape:window-width="1920"
     inkscape:window-height="1017"
     id="namedview31"
     showgrid="false"
     inkscape:zoom="4.9166667"
     inkscape:cx="-69.762713"
     inkscape:cy="24"
     inkscape:window-x="-8"
     inkscape:window-y="-8"
     inkscape:window-maximized="1"
     inkscape:current-layer="svg29" />
  <defs
     id="defs15">
    <linearGradient
       xlink:href="#4"
       id="3"
       x1="270.81"
       y1="552.26"
       x2="262.08"
       y2="103.69"
       gradientUnits="userSpaceOnUse" />
    <linearGradient
       id="4">
      <stop
         stop-color="#212121"
         id="stop3" />
      <stop
         offset="1"
         stop-color="#3f3f41"
         id="stop5" />
    </linearGradient>
    <linearGradient
       xlink:href="#4"
       id="2"
       x1="286.69"
       y1="65.24"
       x2="289.12"
       y2="7.289"
       gradientUnits="userSpaceOnUse" />
    <linearGradient
       id="0"
       x1="413.64"
       y1="536.75"
       x2="412.94"
       y2="510.46"
       gradientUnits="userSpaceOnUse">
      <stop
         stop-color="#197cf1"
         id="stop9" />
      <stop
         offset="1"
         stop-color="#20bcfa"
         id="stop11" />
    </linearGradient>
    <linearGradient
       xlink:href="#4"
       id="1"
       x1="427.97"
       y1="130.66"
       x2="444.66"
       y2="68.42"
       gradientUnits="userSpaceOnUse" />
  </defs>
  <g
     transform="matrix(1.04348 0 0 1.04348-402.34-522.57)"
     id="g27">
    <ellipse
       ry="13.663"
       rx="12.706"
       cy="524.21"
       cx="412.42"
       id="ellipse17"
       fill-rule="evenodd"
       fill="url(#0)" />
    <g
       transform="matrix(.0811 0 0 .0811 385.57 500.8)"
       id="g25">
      <path
         d="m464.99 141.27c0 0 8.996 9.05 15.346.017l12.1-17.349c4.225-6.103-1.231-10.327-1.796-10.744l-73.41-51.29h-.017c-4.52-3.145-7.521-1.236-9.1.533l-1.311 1.891-11.181 16.01c-.053.061-6.315 9.937 3.695 15.16v.013c14.295 7.03 40.526 21.868 65.66 45.814l.018-.051"
         id="path19"
         fill="url(#1)" />
      <path
         d="m341.45 0h-115.69c-8.978 0-16.334 7.213-16.334 16.338v13.484c0 9.112 7.356 16.468 16.334 16.468h5.725v9.521c.009 13.688 8.648 14.825 12.985 14.534.737-.109 1.501-.226 2.308-.33.009 0 .122-.026.122-.026h-.009c15.397-2.108 40.9-4.125 70.15-.403l.017-.026c0 0 18.737 3.474 18.686-13.758v-9.52h5.725c8.987 0 16.325-7.348 16.325-16.473v-13.471c-.0001-9.117-7.357-16.338-16.344-16.338"
         id="path21"
         fill="url(#2)" />
      <path
         d="m298.86 328.98c-13.991.018-15.18-9.715-15.249-12.518v-164.71c.408-5.729 3.383-16.521 19.969-13.731.329.047.642.082.988.121 1.059.182 2.064.326 2.846.386 48.32 6.788 154.31 38.21 167.56 180.7-.373 3.965-2.619 9.741-12.543 9.794-85.29-.235-139.25-.123-163.57-.036m-15.249-238.11c-131.54 0-238.17 106.64-238.17 238.19 0 131.52 106.63 238.16 238.17 238.16 131.54 0 238.17-106.64 238.17-238.16 0-131.55-106.63-238.19-238.17-238.19"
         id="path23"
         fill="url(#3)" />
    </g>
  </g>
  <text
     xml:space="preserve"
     style="font-style:normal;font-variant:normal;font-weight:normal;font-stretch:condensed;font-size:28.00632858px;line-height:1.25;font-family:'Agency FB';-inkscape-font-specification:'Agency FB, Condensed';font-variant-ligatures:normal;font-variant-caps:normal;font-variant-numeric:normal;font-feature-settings:normal;text-align:start;letter-spacing:0px;word-spacing:0px;writing-mode:lr-tb;text-anchor:start;fill:#ffffff;fill-opacity:1;stroke:none;stroke-width:1.0502373"
     x="8.6349516"
     y="43.671318"
     id="text845"
     transform="scale(1.1797655,0.84762606)"><tspan
       sodipodi:role="line"
       id="tspan843"
       x="8.6349516"
       y="43.671318"
       style="stroke-width:1.0502373">20</tspan></text>
</svg>
